<?xml version="1.0" encoding="UTF-8"?>
<svg width="25px" height="25px" viewBox="0 0 25 25" version="1.1" xmlns="http://www.w3.org/2000/svg" xmlns:xlink="http://www.w3.org/1999/xlink">
    <!-- Generator: Sketch 58 (84663) - https://sketch.com -->
    <title>call</title>
    <desc>Created with Sketch.</desc>
    <g id="Page-1" stroke="none" stroke-width="1" fill="none" fill-rule="evenodd">
        <g id="14.-TheComposerWorks_contact" transform="translate(-236.000000, -1178.000000)" fill="#1C1C1C" fill-rule="nonzero">
            <g id="call" transform="translate(236.000000, 1178.000000)">
                <path d="M22.9342857,16.367013 C21.4076623,16.367013 19.9087013,16.1282468 18.4882468,15.6588312 C17.7922078,15.4214286 16.9365584,15.6392208 16.5117532,16.0755195 L13.7080519,18.192013 C10.4565584,16.4563636 8.4537013,14.4541558 6.74175325,11.2270779 L8.79597403,8.49642857 C9.32967532,7.96344156 9.5211039,7.18487013 9.29175325,6.45435065 C8.82032468,5.02642857 8.58084416,3.52818182 8.58084416,2.00090909 C8.58090909,0.897597403 7.68331169,0 6.58006494,0 L2.00084416,0 C0.897597403,0 0,0.897597403 0,2.00084416 C0,14.6469481 10.2881818,24.9350649 22.9342857,24.9350649 C24.0375325,24.9350649 24.9351299,24.0374675 24.9351299,22.9342208 L24.9351299,18.3677922 C24.9351299,17.2646104 24.0374675,16.367013 22.9342857,16.367013 Z" id="Path"></path>
            </g>
        </g>
    </g>
</svg>