<?xml version="1.0" encoding="UTF-8"?>
<svg width="34px" height="34px" viewBox="0 0 34 34" version="1.1" xmlns="http://www.w3.org/2000/svg" xmlns:xlink="http://www.w3.org/1999/xlink">
    <!-- Generator: Sketch 58 (84663) - https://sketch.com -->
    <title>Facebook</title>
    <desc>Created with Sketch.</desc>
    <g id="Page-1" stroke="none" stroke-width="1" fill="none" fill-rule="evenodd">
        <g id="01.-TheComposerWorks_homepage" transform="translate(-1170.000000, -1620.000000)" fill="#1C1C1C">
            <g id="Group-8" transform="translate(13.000000, 1512.000000)">
                <g id="Group-5" transform="translate(1157.000000, 108.000000)">
                    <path d="M16.752206,-3.55271368e-15 C7.50032925,-3.55271368e-15 0,7.61227446 0,17.0022389 C0,26.3877255 7.50032925,34 16.752206,34 C25.9996707,34 33.5,26.3877255 33.5,17.0022389 C33.5,7.61227446 25.9996707,-3.55271368e-15 16.752206,-3.55271368e-15 L16.752206,-3.55271368e-15 Z M24.9010931,24.1891216 C24.9010931,24.6906361 24.6584354,25.2239431 24.168708,25.2239431 L20.0479389,25.2239431 L20.0479389,18.9550112 L22.1436191,18.9550112 L22.4612801,16.2683261 L20.0479389,16.2683261 L20.0479389,14.6648229 C20.0479389,13.9483735 20.2376531,13.581641 21.2524035,13.581641 L22.6951139,13.581641 L22.6951139,11.2392994 C22.2539181,11.2079547 21.5700645,11.1407876 20.674437,11.1407876 C18.8125905,11.1407876 17.4007639,12.2960622 17.4007639,14.4185434 L17.4007639,16.2683261 L15.1947847,16.2683261 L15.1947847,18.9550112 L17.4007639,18.9550112 L17.4007639,25.2239431 L9.75925194,25.2239431 C9.2651126,25.2239431 9.01804293,24.6906361 9.01804293,24.1891216 L9.01804293,9.56459897 C9.01804293,9.06308442 9.2651126,8.65605163 9.75925194,8.65605163 L24.168708,8.65605163 C24.6584354,8.65605163 24.9010931,9.06308442 24.9010931,9.56459897 L24.9010931,24.1891216 L24.9010931,24.1891216 Z" id="Facebook"></path>
                </g>
            </g>
        </g>
    </g>
</svg>