<?xml version="1.0" encoding="UTF-8"?>
<svg width="34px" height="34px" viewBox="0 0 34 34" version="1.1" xmlns="http://www.w3.org/2000/svg" xmlns:xlink="http://www.w3.org/1999/xlink">
    <!-- Generator: Sketch 58 (84663) - https://sketch.com -->
    <title>Linkedin</title>
    <desc>Created with Sketch.</desc>
    <g id="Page-1" stroke="none" stroke-width="1" fill="none" fill-rule="evenodd">
        <g id="01.-TheComposerWorks_homepage" transform="translate(-1220.000000, -1620.000000)" fill="#1C1C1C">
            <g id="Group-8" transform="translate(13.000000, 1512.000000)">
                <g id="Group-5" transform="translate(1157.000000, 108.000000)">
                    <path d="M67.002206,-1.42108547e-14 C57.7503293,-1.42108547e-14 50.25,7.61227446 50.25,17.0022389 C50.25,26.3877255 57.7503293,34 67.002206,34 C76.2496707,34 83.75,26.3877255 83.75,17.0022389 C83.75,7.61227446 76.2496707,-1.42108547e-14 67.002206,-1.42108547e-14 L67.002206,-1.42108547e-14 Z M59.7092388,14.2707757 L62.7976096,14.2707757 L62.7976096,24.5697353 L59.7092388,24.5697353 L59.7092388,14.2707757 Z M61.0725339,13.375214 L61.0504741,13.375214 C59.898953,13.375214 59.157744,12.4841301 59.157744,11.4945344 C59.157744,10.4870275 59.9210128,9.66758857 61.0945937,9.66758857 C62.2637627,9.66758857 62.9829119,10.5138944 63.0093836,11.5214013 C63.0093836,12.510997 62.2637627,13.375214 61.0725339,13.375214 L61.0725339,13.375214 Z M75.592289,24.5697353 L71.6215264,24.5697353 L71.6215264,19.3530884 C71.6215264,17.9694455 71.1670947,17.0291058 69.9273344,17.0291058 C68.9831753,17.0291058 68.4360925,17.6649546 68.1890228,18.2784143 C68.0963717,18.4978269 68.0919597,18.8023179 68.0919597,19.1112867 L68.0919597,24.5697353 L64.6771039,24.5697353 C64.6771039,24.5697353 64.7212235,15.1663374 64.6771039,14.2707757 L68.0919597,14.2707757 L68.0919597,16.0305545 C68.5331555,15.3320163 69.5920255,14.333465 71.4097524,14.333465 C73.6642631,14.333465 75.592289,15.7977084 75.592289,18.9590412 L75.592289,24.5697353 L75.592289,24.5697353 Z" id="Linkedin"></path>
                </g>
            </g>
        </g>
    </g>
</svg>