<?xml version="1.0" encoding="UTF-8"?>
<svg width="170px" height="74px" viewBox="0 0 170 74" version="1.1" xmlns="http://www.w3.org/2000/svg" xmlns:xlink="http://www.w3.org/1999/xlink">
    <!-- Generator: Sketch 58 (84663) - https://sketch.com -->
    <title>Group 4</title>
    <desc>Created with Sketch.</desc>
    <g id="Page-1" stroke="none" stroke-width="1" fill="none" fill-rule="evenodd">
        <g id="01.-TheComposerWorks_homepage" transform="translate(-166.000000, -1535.000000)" fill="#1C1C1C" fill-rule="nonzero">
            <g id="Group-8" transform="translate(13.000000, 1512.000000)">
                <g id="Group-4" transform="translate(153.000000, 23.000000)">
                    <g id="The-Composer-Works-logo_MONO">
                        <path d="M52.470922,12.1210402 C50.6905437,11.5905437 49.0990544,11.0761229 47.6763593,10.5777778 C42.6286052,8.85768322 38.5574468,7.32245863 36.3791962,3.91040189 C35.82411,3.00727934 35.4577196,2.00107286 35.3021277,0.95248227 L35.3021277,0 L34.2853428,0 L34.2853428,21.0269504 C34.0200946,21.4730496 33.7427896,21.9432624 33.449409,22.4617021 C32.9671395,23.3096927 32.6054374,23.570922 31.3836879,23.4141844 C30.1619385,23.2574468 29.8765957,22.9118203 29.6234043,21.9713948 C29.1973995,20.3638298 28.8196217,19.158156 28.4619385,17.8801418 C28.2489362,17.0763593 27.6983452,16.9477541 26.6453901,17.0040189 C25.592435,17.0602837 25.0699764,17.3094563 24.9695035,18.1212766 C24.8047281,19.435461 24.5676123,20.6973995 24.3827423,22.3330969 C24.2621749,23.2976359 24.029078,23.6794326 22.8394799,24.0049645 C21.6498818,24.3304965 21.2560284,24.1174941 20.6612293,23.3458629 C19.6605201,22.0397163 18.8286052,21.0631206 18.0248227,20.0141844 C17.5264775,19.3671395 16.8513002,19.4555556 16.0153664,19.8976359 C15.1030733,20.3799054 14.6770686,20.7817967 14.8940898,21.5695035 C15.2437352,22.8434988 15.5250591,24.0973995 15.9631206,25.68487 C16.220331,26.6252955 16.1520095,27.0673759 15.1593381,27.8189125 C14.1666667,28.5704492 13.7406619,28.53026 12.8966903,28.0439716 C11.4699764,27.2401891 10.3286052,26.6333333 9.18321513,25.9742317 C8.47588652,25.5723404 7.97754137,25.8576832 7.27825059,26.6373522 C6.57895981,27.4170213 6.3820331,27.9676123 6.87635934,28.6106383 C7.68014184,29.6555556 8.42765957,30.7044917 9.44042553,32.0026005 C10.0392435,32.7702128 10.1437352,33.2082742 9.53286052,34.277305 C8.92198582,35.3463357 8.49196217,35.4829787 7.52340426,35.3503546 C5.89172577,35.1373522 4.61371158,35.0328605 3.29952719,34.8600473 C2.49574468,34.7555556 2.09385343,35.2177305 1.7964539,36.2023641 C1.49905437,37.1869976 1.4749409,37.7737589 2.19834515,38.179669 C3.34775414,38.8347518 4.43286052,39.5219858 5.86359338,40.3338061 C6.71158392,40.8160757 6.97281324,41.1777778 6.81607565,42.3995272 C6.65933806,43.6212766 6.31371158,43.9066194 5.37328605,44.1598109 C3.76572104,44.5858156 2.56004728,44.9635934 1.2820331,45.3212766 C0.478250591,45.534279 0.34964539,46.08487 0.405910165,47.1378251 C0.462174941,48.1907801 0.711347518,48.7132388 1.52316785,48.8137116 C2.83735225,48.978487 4.09929078,49.2156028 5.73498818,49.4004728 C6.7035461,49.5210402 7.08132388,49.7541371 7.40685579,50.9437352 C7.73238771,52.1333333 7.51938534,52.5271868 6.74775414,53.1219858 C5.44160757,54.122695 4.46501182,54.9546099 3.41205674,55.7624113 C2.76501182,56.2607565 2.8534279,56.9359338 3.29550827,57.7718676 C3.77777778,58.6841608 4.17966903,59.1101655 4.96737589,58.8931442 C6.24137116,58.5434988 7.49527187,58.2621749 9.08274232,57.8241135 C10.0231678,57.5669031 10.4652482,57.6352246 11.2167849,58.627896 C11.9683215,59.6205674 11.9281324,60.0465721 11.441844,60.8905437 C10.6380615,62.3172577 10.0312057,63.4586288 9.37210402,64.6040189 C8.97021277,65.3113475 9.25555556,65.8096927 10.0352246,66.5089835 C10.8148936,67.2082742 11.3654846,67.4052009 12.0085106,66.9108747 C13.0534279,66.1070922 14.1023641,65.3595745 15.4004728,64.3468085 C16.1680851,63.7479905 16.6061466,63.6434988 17.6751773,64.2583924 C18.744208,64.8732861 18.8808511,65.2992908 18.748227,66.2678487 C18.5352246,67.8995272 18.4307329,69.1775414 18.2579196,70.4917258 C18.1534279,71.2955083 18.6156028,71.6531915 19.6002364,71.9947991 C20.58487,72.3364066 21.1716312,72.3163121 21.5775414,71.5929078 C22.2326241,70.4434988 22.9198582,69.3583924 23.7316785,67.9276596 C24.213948,67.079669 24.5756501,66.8184397 25.7973995,66.9751773 C27.0191489,67.1319149 27.3044917,67.4775414 27.5576832,68.4179669 C27.9836879,70.0255319 28.3614657,71.2312057 28.7191489,72.5092199 C28.9321513,73.3130024 29.4827423,73.4416076 30.5356974,73.3853428 C31.5886525,73.329078 32.1111111,73.0799054 32.2115839,72.2680851 C32.3763593,70.9539007 32.6134752,69.6919622 32.7983452,68.0562648 C32.9189125,67.0917258 33.1520095,66.7099291 34.3416076,66.3843972 C35.5312057,66.0588652 35.9250591,66.2718676 36.5198582,67.0434988 C37.5205674,68.3496454 38.3524823,69.3262411 39.1562648,70.3751773 C39.6546099,71.0222222 40.3297872,70.9338061 41.165721,70.4917258 C42.0780142,70.0094563 42.5040189,69.6035461 42.2869976,68.8198582 C41.9373522,67.5458629 41.6560284,66.2919622 41.2179669,64.7044917 C40.9607565,63.7640662 41.029078,63.3219858 42.0217494,62.5704492 C43.0144208,61.8189125 43.4404255,61.8591017 44.2843972,62.3453901 C45.7111111,63.1491726 46.8524823,63.7560284 47.9978723,64.41513 C48.7052009,64.8170213 49.2035461,64.5316785 49.9028369,63.7520095 C50.6021277,62.9723404 50.7990544,62.4217494 50.3047281,61.7787234 C49.5009456,60.7338061 48.7534279,59.68487 47.7406619,58.3867612 C47.141844,57.6191489 47.0373522,57.1810875 47.648227,56.1120567 C48.2591017,55.043026 48.6891253,54.906383 49.6576832,55.0390071 C51.2893617,55.2520095 52.5673759,55.3605201 53.8815603,55.5293144 C54.6853428,55.6338061 55.087234,55.1716312 55.3846336,54.1869976 C55.6820331,53.2023641 55.7061466,52.6156028 54.9827423,52.2096927 C53.8333333,51.5546099 52.748227,50.8673759 51.3174941,50.0555556 C50.4695035,49.5732861 50.2082742,49.2115839 50.3650118,47.9898345 C50.5217494,46.7680851 50.8673759,46.4827423 51.8078014,46.2295508 C53.4153664,45.8035461 54.6210402,45.4257683 55.8990544,45.0680851 C56.7028369,44.8550827 56.8314421,44.3044917 56.7751773,43.2515366 C56.7189125,42.1985816 56.46974,41.6761229 55.6579196,41.5756501 C54.3437352,41.4108747 53.0817967,41.1737589 51.4460993,40.9888889 C50.4775414,40.8683215 50.0957447,40.6352246 49.7742317,39.4456265 C49.4527187,38.2560284 49.6617021,37.8621749 50.4333333,37.2673759 C51.7394799,36.2666667 52.7160757,35.4347518 53.7690307,34.6269504 C54.4160757,34.1286052 54.3276596,33.4534279 53.8855792,32.6174941 C53.4033097,31.7052009 53.0014184,31.2791962 52.2137116,31.4962175 C50.9397163,31.8458629 49.6858156,32.1271868 48.0983452,32.5652482 C47.1579196,32.8224586 46.7158392,32.7541371 45.9643026,31.7614657 C45.212766,30.7687943 45.2529551,30.3427896 45.7392435,29.498818 C46.543026,28.072104 47.1498818,26.9307329 47.8089835,25.7853428 C48.2108747,25.0780142 47.9295508,24.579669 47.1458629,23.8803783 C46.3621749,23.1810875 45.8156028,22.9841608 45.1725768,23.478487 C44.1276596,24.2822695 43.0787234,25.0297872 41.7806147,26.0425532 C41.5527227,26.2379957 41.2912844,26.3905014 41.0089835,26.4926714 L41.0089835,12.8685579 C44.0231678,14.7373522 48.3756501,16.356974 55.5212766,19.206383 C57.1288416,19.849409 60.050591,21.272104 61.3567376,23.3378251 C63.2335697,26.3078014 62.4297872,30.0293144 58.2501182,29.4706856 C55.91513,29.1612293 50.6141844,25.5401891 51.1125296,21.2479905 C51.136643,21.0229314 51.0401891,21.0189125 51.0200946,21.2479905 C50.7157186,24.0584158 51.9221525,26.8199109 54.1910165,28.5061466 C57.0042553,30.6602837 59.7491726,30.4713948 61.2683215,29.1813239 C62.4177305,28.2047281 62.8758865,26.4765957 62.1002364,24.4550827 C61.0553191,21.7744681 59.0820331,20.3959811 57.9406619,19.5680851 C55.364539,17.6952719 50.6061466,16.1118203 46.3621749,14.4640662 C44.517996,13.8130282 42.7291705,13.0147093 41.0130024,12.0768322 L41.0130024,12.0768322 L41.0130024,12.0768322 C38.8066194,10.8068558 36.5921986,9.00236407 35.3222222,6.40614657 L35.3222222,1.51914894 C36.2586288,5.76713948 39.8314421,9.31182033 52.0891253,13.049409 C64.2101655,16.7427896 68.1326241,24.8489362 66.2156028,30.5758865 C66.1914894,30.644208 66.2437352,30.7004728 66.2799054,30.6040189 C69.1695035,22.2286052 60.7659574,14.5926714 52.470922,12.1210402 Z M39.9882605,12.1933806 L39.9882605,45.4137116 C40.0076618,50.6223024 36.5056292,55.1862681 31.4694822,56.5155619 C26.4333353,57.8448558 21.1350942,55.6037275 18.5815061,51.0640154 C16.027918,46.5243033 16.8639633,40.8326389 20.6151869,37.2190369 C24.3664105,33.6054348 30.0853357,32.9826116 34.5264775,35.7040189 L35.3021277,36.1822695 L35.3021277,6.61914894 C36.620331,9.09479905 38.0028369,10.7626478 39.9841608,12.1933806 L39.9882605,12.1933806 Z" id="Shape"></path>
                        <path d="M30.1699764,72.3605201 C30.0196502,72.3685579 29.8690122,72.3522727 29.7238771,72.3122931 C29.7238771,72.3122931 29.7238771,72.272104 29.6957447,72.2198582 C29.5309693,71.6089835 29.358156,71.0141844 29.1732861,70.3832151 C28.9723404,69.6919622 28.7713948,68.9605201 28.534279,68.1286052 C28.1565012,66.713948 27.4732861,66.1432624 25.9300236,65.9463357 C25.6955933,65.9139446 25.4593403,65.8964941 25.222695,65.8940898 C23.8321513,65.8940898 23.2735225,66.6737589 22.8595745,67.401182 C22.4456265,68.1286052 22.055792,68.8118203 21.6539007,69.4106383 C21.320331,69.9692671 21.0028369,70.4997636 20.6933806,71.0463357 C20.6746014,71.0833621 20.6501985,71.1172551 20.6210402,71.1468085 C20.3826851,71.124866 20.1486196,71.0693939 19.9257683,70.9820331 C19.6797595,70.9189975 19.447929,70.8099008 19.2425532,70.6605201 C19.2425532,70.6605201 19.2425532,70.620331 19.2425532,70.5640662 C19.3269504,69.9371158 19.391253,69.3182033 19.4635934,68.6671395 C19.5399527,67.951773 19.6243499,67.1962175 19.7368794,66.344208 C19.9297872,64.8933806 19.5158392,64.1056738 18.1654846,63.3300236 C17.6688127,63.0011422 17.0926256,62.8123194 16.4976359,62.7834515 C15.8574576,62.8151748 15.2481107,63.068004 14.7735225,63.498818 C14.0943262,64.0293144 13.4834515,64.4834515 12.9047281,64.9094563 C12.3260047,65.335461 11.8799054,65.6730496 11.3815603,66.0588652 C11.3502261,66.0855211 11.3149849,66.107208 11.2770686,66.1231678 C11.0641915,66.0225992 10.8698775,65.8867153 10.7023641,65.7212766 C10.499771,65.5659556 10.326867,65.3753527 10.1919622,65.1586288 C10.1919622,65.1586288 10.1919622,65.1224586 10.2401891,65.0742317 C10.5536643,64.5276596 10.8510638,63.9851064 11.164539,63.4104019 C11.4780142,62.8356974 11.8758865,62.1082742 12.3099291,61.3567376 C13.0413712,60.0907801 12.9650118,59.2026005 12.0085106,57.9728132 C11.4820331,57.293617 10.8550827,56.6666667 9.82624113,56.6666667 C9.48018838,56.6762578 9.13693256,56.7316652 8.80543735,56.8314421 C7.97352246,57.0605201 7.23404255,57.2333333 6.53475177,57.4222222 C5.89976359,57.5829787 5.29692671,57.7316785 4.69007092,57.9004728 C4.65536743,57.9046807 4.62028268,57.9046807 4.5855792,57.9004728 C4.42664883,57.7042332 4.29172925,57.4897111 4.18368794,57.2614657 C4.04279177,57.0634463 3.96187136,56.8290562 3.95059102,56.5862884 L3.95059102,56.5862884 C3.97013205,56.5604963 3.99312037,56.5375079 4.01891253,56.5179669 C4.51725768,56.1160757 4.99952719,55.7463357 5.50591017,55.3364066 C6.01229314,54.9264775 6.66335697,54.4040189 7.35059102,53.8775414 C8.51205674,52.9853428 8.77730496,52.1373522 8.3713948,50.634279 C7.96548463,49.1312057 7.30236407,48.5323877 5.85153664,48.3555556 C4.99550827,48.2510638 4.24397163,48.1385343 3.52458629,48.0340426 C2.87754137,47.9375887 2.26666667,47.8491726 1.63971631,47.7687943 C1.59831536,47.7657006 1.55764375,47.7562106 1.51914894,47.7406619 L1.51914894,47.7406619 C1.44088083,47.5145893 1.40279607,47.2765595 1.40661939,47.0373522 C1.3728408,46.7840483 1.38509425,46.5267258 1.4427896,46.2777778 L1.4427896,46.2777778 L1.53522459,46.2496454 C2.14208038,46.08487 2.74089835,45.9120567 3.36382979,45.7271868 C4.05508274,45.5262411 4.78652482,45.3252955 5.62245863,45.0881797 C7.03711584,44.706383 7.60780142,44.0271868 7.80472813,42.4799054 C8.00165485,40.9326241 7.61985816,40.1328605 6.3498818,39.4094563 C5.59834515,38.9834515 4.94728132,38.6056738 4.34042553,38.2037825 C3.73356974,37.8018913 3.24728132,37.5486998 2.69669031,37.2392435 C2.66301374,37.2222533 2.63189673,37.2006067 2.60425532,37.1749409 L2.60425532,37.1749409 C2.62630191,36.9287828 2.68173537,36.6867684 2.76903073,36.4555556 C2.81812291,36.2130981 2.92419559,35.9857995 3.078487,35.792435 L3.17895981,35.792435 C3.80189125,35.8728132 4.42080378,35.9411348 5.0678487,36.0134752 C5.78321513,36.0898345 6.5427896,36.1742317 7.39881797,36.2867612 C7.61186826,36.316941 7.82667545,36.3330515 8.04184397,36.3349882 C9.31182033,36.3349882 9.93073286,35.5553191 10.4130024,34.7274232 C11.1886525,33.3770686 11.1404255,32.4888889 10.244208,31.3314421 C9.71371158,30.6522459 9.25957447,30.0413712 8.82955083,29.4626478 C8.39952719,28.8839243 8.06997636,28.4378251 7.68014184,27.9394799 C7.65315704,27.9083859 7.63143644,27.8730899 7.61583924,27.8349882 L7.61583924,27.8349882 C7.71579235,27.6217545 7.85174566,27.4273413 8.0177305,27.2602837 C8.17265679,27.0573277 8.3633315,26.8843585 8.58037825,26.7498818 L8.66879433,26.7981087 C9.21536643,27.1115839 9.76193853,27.4130024 10.336643,27.7264775 C10.9113475,28.0399527 11.6347518,28.4378251 12.3822695,28.8678487 C12.8328066,29.1640122 13.3547875,29.3333783 13.8933806,29.358156 C14.5901996,29.3081359 15.2498948,29.025005 15.7661939,28.5543735 C17,27.6018913 17.2973995,26.7619385 16.907565,25.3392435 C16.678487,24.5073286 16.5056738,23.7678487 16.3167849,23.0685579 C16.1560284,22.4335697 16.0073286,21.8307329 15.8385343,21.2238771 C15.8336288,21.1878732 15.8336288,21.1513703 15.8385343,21.1153664 L15.8385343,21.1153664 C16.0350164,20.9567752 16.2494967,20.8218819 16.4775414,20.7134752 C16.6745614,20.5883948 16.8969675,20.5087679 17.1286052,20.4803783 C17.1672267,20.4904239 17.1995268,20.5168511 17.2170213,20.5527187 C17.6189125,21.0510638 17.9886525,21.5333333 18.3985816,22.0437352 C18.8085106,22.5541371 19.3309693,23.201182 19.8574468,23.8843972 C20.3356974,24.5073286 20.9224586,25.0900709 21.9513002,25.0900709 C22.3407824,25.0812606 22.7273403,25.0204386 23.1007092,24.9092199 C24.6037825,24.5073286 25.1985816,23.8401891 25.3794326,22.3893617 C25.4879433,21.5293144 25.5964539,20.7817967 25.7049645,20.0583924 C25.8014184,19.4153664 25.8898345,18.8004728 25.9661939,18.1775414 C25.9692876,18.1361404 25.9787776,18.0954688 25.9943262,18.056974 L25.9943262,18.056974 C26.2192258,17.9795624 26.4557858,17.9418064 26.693617,17.9444444 L27.0030733,17.9444444 C27.1531802,17.9352383 27.3037922,17.9501638 27.4491726,17.9886525 C27.4491726,17.9886525 27.4491726,18.0288416 27.477305,18.0810875 C27.6420804,18.6919622 27.8148936,19.2867612 27.9997636,19.9177305 C28.2007092,20.6089835 28.4016548,21.3404255 28.6387707,22.1723404 C29.0165485,23.5869976 29.6997636,24.1576832 31.2470449,24.3546099 C31.4871434,24.4026689 31.7301418,24.4348897 31.9744681,24.4510638 C33.3248227,24.4510638 33.8914894,23.7156028 34.3014184,23.0042553 L34.3014184,34.4059102 C29.3654809,31.8560446 23.3356578,32.9034378 19.5487442,36.9684813 C15.7618306,41.0335249 15.1437006,47.1223437 18.0364163,51.8654955 C20.929132,56.6086474 26.6254442,58.8464645 31.973117,57.3405794 C37.3207897,55.8346942 41.0123538,50.9532852 41.0049645,45.3976359 L41.0049645,27.5094563 L41.0049645,27.5094563 C41.104398,27.5092023 41.203252,27.4943065 41.2983452,27.4652482 C41.6988537,27.3278115 42.0707358,27.1180319 42.3955083,26.8463357 C43.0787234,26.3158392 43.6895981,25.8617021 44.2683215,25.4276596 C44.8470449,24.993617 45.2891253,24.6680851 45.7874704,24.2822695 C45.8188047,24.2556136 45.8540458,24.2339268 45.8919622,24.2179669 C46.1050756,24.3181277 46.2994552,24.4540575 46.4666667,24.6198582 C46.6694401,24.774983 46.8423765,24.9656215 46.9770686,25.1825059 C46.9770686,25.1825059 46.9770686,25.2186761 46.9288416,25.2669031 C46.6153664,25.8134752 46.3179669,26.3560284 46.0044917,26.9307329 C45.6910165,27.5054374 45.2931442,28.2328605 44.8591017,28.9803783 C44.1276596,30.2503546 44.2040189,31.1345154 45.1605201,32.3683215 C45.6829787,33.0475177 46.313948,33.6744681 47.3427896,33.6744681 C47.6888424,33.664877 48.0320982,33.6094696 48.3635934,33.5096927 C49.1955083,33.2806147 49.9309693,33.1078014 50.63026,32.9189125 C51.2652482,32.758156 51.8680851,32.6054374 52.4789598,32.4406619 C52.5136584,32.4363741 52.5487529,32.4363741 52.5834515,32.4406619 C52.7427306,32.6366519 52.8776776,32.8512176 52.9853428,33.079669 C53.126239,33.2776885 53.2071594,33.5120786 53.2184397,33.7548463 L53.2184397,33.7548463 C53.1984888,33.7790948 53.1755302,33.8007029 53.1501182,33.8191489 C52.6477541,34.2210402 52.1654846,34.5947991 51.6550827,35.0047281 C51.1446809,35.4146572 50.5016548,35.9330969 49.8184397,36.4595745 C48.656974,37.351773 48.3917258,38.1997636 48.7976359,39.7028369 C49.2035461,41.2059102 49.8666667,41.8007092 51.3174941,41.9815603 C52.1735225,42.086052 52.9250591,42.1985816 53.6364066,42.3030733 C54.2834515,42.3995272 54.8983452,42.4879433 55.5252955,42.5683215 C55.5666965,42.5714152 55.6073681,42.5809053 55.6458629,42.5964539 L55.6458629,42.5964539 C55.7232745,42.8213535 55.7613416,43.0579135 55.7583924,43.2957447 C55.7922596,43.5490448 55.7800054,43.8063833 55.7222222,44.0553191 L55.7222222,44.0553191 L55.6297872,44.0834515 C55.0229314,44.248227 54.4241135,44.4210402 53.7971631,44.6059102 C53.1059102,44.8068558 52.3744681,45.0078014 51.5425532,45.2449173 C50.127896,45.622695 49.5572104,46.3059102 49.3602837,47.8491726 C49.163357,49.392435 49.5451537,50.2002364 50.8191489,50.9196217 C51.5706856,51.3456265 52.2257683,51.7234043 52.8286052,52.1252955 C53.4314421,52.5271868 53.9217494,52.7803783 54.4683215,53.0898345 C54.5019981,53.1068247 54.5331151,53.1284714 54.5607565,53.1541371 L54.5607565,53.1541371 C54.5383683,53.4002409 54.4829452,53.6422098 54.3959811,53.8735225 C54.3467421,54.1159316 54.2406849,54.3431971 54.0865248,54.536643 L53.986052,54.536643 C53.3631206,54.4562648 52.748227,54.3879433 52.0971631,54.3196217 C51.3777778,54.2432624 50.6182033,54.1588652 49.7621749,54.0463357 C49.5491172,54.0162251 49.3343145,54.0001149 49.1191489,53.9981087 C47.8491726,53.9981087 47.23026,54.7777778 46.7479905,55.6056738 C45.9723404,56.9560284 46.0205674,57.848227 46.9167849,59.0016548 C47.4472813,59.6808511 47.9014184,60.2957447 48.3314421,60.8704492 C48.7614657,61.4451537 49.0910165,61.8952719 49.4808511,62.393617 C49.5075069,62.4249512 49.5291938,62.4601924 49.5451537,62.4981087 L49.5451537,62.4981087 C49.4452704,62.7113828 49.3093091,62.9058073 49.1432624,63.0728132 C48.9877477,63.2752278 48.7971797,63.4481001 48.5806147,63.5832151 L48.4921986,63.5349882 C47.9456265,63.221513 47.3990544,62.9200946 46.8243499,62.6066194 C46.2496454,62.2931442 45.5262411,61.8952719 44.7787234,61.4652482 C44.3281863,61.1690847 43.8062054,60.9997186 43.2676123,60.9749409 C42.5707933,61.024961 41.9110981,61.308092 41.3947991,61.7787234 C40.1609929,62.7312057 39.8635934,63.5711584 40.2534279,64.9938534 C40.4825059,65.8257683 40.6553191,66.5692671 40.844208,67.2685579 C41.0049645,67.8995272 41.1536643,68.5023641 41.3224586,69.1092199 C41.3273641,69.1452238 41.3273641,69.1817266 41.3224586,69.2177305 L41.3224586,69.2177305 C41.1256779,69.3759032 40.9112483,69.5107645 40.6834515,69.6196217 C40.4864315,69.7447021 40.2640254,69.824329 40.0323877,69.8527187 C39.9922611,69.8437412 39.9583106,69.8171712 39.9399527,69.7803783 C39.5380615,69.2780142 39.1643026,68.7957447 38.734279,68.2813239 C38.3042553,67.7669031 37.8059102,67.127896 37.2834515,66.4446809 C36.7609929,65.7614657 36.2184397,65.2390071 35.1895981,65.2390071 C34.8001246,65.2479132 34.4135793,65.3087332 34.0401891,65.4198582 C32.5371158,65.8217494 31.9382979,66.4888889 31.7614657,67.9397163 C31.656974,68.7917258 31.5444444,69.5472813 31.4399527,70.2546099 C31.3434988,70.9056738 31.2550827,71.5205674 31.1747045,72.1475177 C31.1716108,72.1889187 31.1621207,72.2295903 31.1465721,72.2680851 L31.1465721,72.2680851 C30.921832,72.3461314 30.6851602,72.3842166 30.4472813,72.3808482 L30.1699764,72.3605201 Z" id="Path"></path>
                        <path d="M63.2858156,47.0132388 C63.2858156,44.8591017 64.5196217,43.5248227 66.6375887,43.5248227 C68.5787234,43.5248227 69.8527187,44.8390071 69.8527187,47.0735225 L69.8527187,48.4078014 L67.6583924,48.4078014 L67.6583924,46.8806147 C67.6583924,45.9200946 67.2846336,45.4498818 66.5612293,45.4498818 C65.8378251,45.4498818 65.4640662,45.9200946 65.4640662,46.8806147 L65.4640662,54.5929078 C65.4640662,55.5534279 65.8378251,56.0437352 66.5612293,56.0437352 C67.2846336,56.0437352 67.6583924,55.5534279 67.6583924,54.5929078 L67.6583924,52.7120567 L69.8527187,52.7120567 L69.8527187,54.1628842 C69.8527187,56.6144208 68.6470449,57.9446809 66.5612293,57.9446809 C64.4070922,57.9446809 63.2898345,56.6304965 63.2898345,54.1026005 L63.2898345,47.0132388 L63.2858156,47.0132388 Z" id="Path"></path>
                        <path d="M74.6030733,43.5208038 C76.544208,43.5208038 77.8182033,44.8349882 77.8182033,47.0695035 L77.8182033,54.1628842 C77.8182033,56.6144208 76.6125296,57.9446809 74.5267139,57.9446809 C72.4408983,57.9446809 71.2553191,56.6304965 71.2553191,54.1026005 L71.2553191,47.0132388 C71.2553191,44.8550827 72.4891253,43.5208038 74.6030733,43.5208038 Z M75.6238771,46.8725768 C75.6238771,45.9120567 75.2501182,45.441844 74.5267139,45.441844 C73.8033097,45.441844 73.4295508,45.9120567 73.4295508,46.8725768 L73.4295508,54.5929078 C73.4295508,55.5534279 73.8033097,56.0437352 74.5267139,56.0437352 C75.2501182,56.0437352 75.6238771,55.5534279 75.6238771,54.5929078 L75.6238771,46.8725768 L75.6238771,46.8725768 Z" id="Shape"></path>
                        <path d="M79.4338061,43.8182033 L82.2751773,43.8182033 L83.665721,51.4822695 C83.7879649,52.1680124 83.8471561,52.8635089 83.8425532,53.5600473 C83.8478953,52.8697138 83.9137901,52.1811799 84.0394799,51.5023641 L85.3737589,43.8182033 L88.2392435,43.8182033 L88.2392435,57.6553191 L86.2297872,57.6553191 L86.2297872,48.9141844 C86.2297872,48.5122931 86.2699764,47.7085106 86.3865248,46.5028369 C86.2297872,47.4432624 86.1333333,48.1104019 86.0529551,48.4640662 L84.308747,57.6553191 L83.251773,57.6553191 L81.5839243,48.4640662 C81.3869976,47.3468085 81.2905437,46.679669 81.2503546,46.5028369 C81.3468085,47.5397163 81.3869976,48.3434988 81.3869976,48.9141844 L81.3869976,57.6553191 L79.4056738,57.6553191 L79.4056738,43.8182033 L79.4338061,43.8182033 Z" id="Path"></path>
                        <path d="M90.007565,43.8182033 L93.1423168,43.8182033 C95.4531915,43.8182033 96.4739953,44.9957447 96.4739953,47.8170213 C96.4739953,50.5217494 95.3165485,52.0288416 93.6125296,52.0288416 L92.1416076,52.0288416 L92.1416076,57.6553191 L90.007565,57.6553191 L90.007565,43.8182033 Z M92.9855792,50.0515366 C94.0425532,50.0515366 94.2997636,49.4647754 94.2997636,47.8572104 C94.2997636,46.2496454 93.9862884,45.8196217 92.9092199,45.8196217 L92.1456265,45.8196217 L92.1456265,50.0515366 L92.9895981,50.0515366 L92.9855792,50.0515366 Z" id="Shape"></path>
                        <path d="M101.071631,43.5208038 C103.012766,43.5208038 104.286761,44.8349882 104.286761,47.0695035 L104.286761,54.1628842 C104.286761,56.6144208 103.081087,57.9446809 100.995272,57.9446809 C98.9094563,57.9446809 97.7238673,56.6304965 97.7238673,54.1026005 L97.7238673,47.0132388 C97.7198582,44.8550827 98.9576832,43.5208038 101.071631,43.5208038 Z M102.092435,46.8725768 C102.092435,45.9120567 101.718676,45.441844 100.995272,45.441844 C100.271868,45.441844 99.8940898,45.9120567 99.8940898,46.8725768 L99.8940898,54.5929078 C99.8940898,55.5534279 100.267849,56.0437352 100.991253,56.0437352 C101.714657,56.0437352 102.088416,55.5534279 102.088416,54.5929078 L102.088416,46.8725768 L102.092435,46.8725768 Z" id="Shape"></path>
                        <path d="M107.598345,53.8333333 C107.678723,55.2238771 108.108747,55.8910165 109.008983,55.8910165 C109.366648,55.910297 109.715397,55.7752045 109.966743,55.5200159 C110.218088,55.2648272 110.347873,54.9140686 110.323168,54.5567376 C110.323168,53.3992908 109.519385,52.6959811 108.402128,51.5586288 C106.854846,50.0113475 105.757683,48.8739953 105.757683,47.049409 C105.727357,46.1476853 106.061407,45.271735 106.684468,44.6191853 C107.307528,43.9666355 108.167105,43.5924634 109.069267,43.5810875 C110.83357,43.5810875 112.107565,44.8550827 112.264303,47.0092199 L110.186525,47.3026005 C110.106147,46.0969267 109.784634,45.578487 109.008983,45.578487 C108.341844,45.578487 107.871631,46.0687943 107.871631,46.8524823 C107.871631,48.106383 108.791962,48.9503546 110.009693,50.1238771 C111.480615,51.5546099 112.400946,52.5914894 112.400946,54.5125296 C112.400946,56.5501182 110.990307,57.9607565 109.089362,57.9607565 C107.011584,57.9607565 105.661229,56.5702128 105.560757,54.1387707 L107.598345,53.8333333 Z" id="Path"></path>
                        <polygon id="Path" points="113.763357 43.8182033 119.329551 43.8182033 119.329551 45.8276596 115.901418 45.8276596 115.901418 49.4446809 118.381087 49.4446809 118.381087 51.4541371 115.909456 51.4541371 115.909456 55.5895981 119.337589 55.5895981 119.337589 57.6673759 113.763357 57.6673759"></polygon>
                        <path d="M122.894326,57.6553191 L120.756265,57.6553191 L120.756265,43.8182033 L123.891017,43.8182033 C126.201891,43.8182033 127.222695,44.9756501 127.222695,47.8170213 C127.222695,49.4647754 126.869031,50.5217494 125.868322,51.229078 L127.435697,57.6593381 L125.213239,57.6593381 L123.899054,51.8399527 L122.878251,51.8399527 L122.878251,57.6593381 L122.894326,57.6553191 Z M122.894326,49.8345154 L123.738298,49.8345154 C124.775177,49.8345154 125.052482,49.2678487 125.052482,47.736643 C125.052482,46.2054374 124.698818,45.8156028 123.661939,45.8156028 L122.898345,45.8156028 L122.898345,49.8345154 L122.894326,49.8345154 Z" id="Shape"></path>
                        <path d="M130.035934,43.8182033 L130.976359,52.008747 C131.064029,52.7302281 131.109654,53.4561983 131.113002,54.1829787 L131.113002,54.4562648 C131.193381,53.0255319 131.229551,52.1252955 131.289835,51.7314421 L132.346809,43.8141844 L134.171395,43.8141844 L135.308747,52.0047281 C135.410555,52.817798 135.456211,53.6369173 135.44539,54.4562648 C135.505674,53.298818 135.541844,52.3985816 135.622222,51.7314421 L136.502364,43.8141844 L138.51182,43.8141844 L136.357683,57.6513002 L134.573286,57.6513002 L133.395745,49.6134752 C133.294861,48.8003221 133.249208,47.9812661 133.259102,47.1619385 C133.178723,48.6690307 133.122459,49.5732861 133.08227,49.8867612 L131.944917,57.6472813 L130.16052,57.6472813 L127.986288,43.8101655 L130.035934,43.8101655 L130.035934,43.8182033 Z" id="Path"></path>
                        <path d="M142.828132,43.5208038 C144.769267,43.5208038 146.043262,44.8349882 146.043262,47.0695035 L146.043262,54.1628842 C146.043262,56.6144208 144.837589,57.9446809 142.751773,57.9446809 C140.665957,57.9446809 139.480368,56.6304965 139.480368,54.1026005 L139.480368,47.0132388 C139.476359,44.8550827 140.710165,43.5208038 142.828132,43.5208038 Z M143.848936,46.8725768 C143.848936,45.9120567 143.475177,45.441844 142.751773,45.441844 C142.028369,45.441844 141.65461,45.9120567 141.65461,46.8725768 L141.65461,54.5929078 C141.65461,55.5534279 142.028369,56.0437352 142.751773,56.0437352 C143.475177,56.0437352 143.848936,55.5534279 143.848936,54.5929078 L143.848936,46.8725768 L143.848936,46.8725768 Z" id="Shape"></path>
                        <path d="M149.788889,57.6553191 L147.650827,57.6553191 L147.650827,43.8182033 L150.785579,43.8182033 C153.096454,43.8182033 154.117258,44.9756501 154.117258,47.8170213 C154.117258,49.4647754 153.763593,50.5217494 152.766903,51.229078 L154.334279,57.6593381 L152.119858,57.6593381 L150.805674,51.8399527 L149.78487,51.8399527 L149.78487,57.6593381 L149.788889,57.6553191 Z M149.788889,49.8345154 L150.632861,49.8345154 C151.66974,49.8345154 151.947045,49.2678487 151.947045,47.736643 C151.947045,46.2054374 151.593381,45.8156028 150.556501,45.8156028 L149.792908,45.8156028 L149.792908,49.8345154 L149.788889,49.8345154 Z" id="Shape"></path>
                        <path d="M155.708747,43.8182033 L157.846809,43.8182033 L157.846809,49.6576832 C157.927144,49.3521931 158.025101,49.0516112 158.140189,48.7574468 L160.258156,43.8182033 L162.376123,43.8182033 L160.004965,48.5404255 L162.649409,57.6553191 L160.434988,57.6553191 L158.630496,50.6985816 L157.826714,52.2659574 L157.826714,57.6553191 L155.688652,57.6553191 L155.688652,43.8182033 L155.708747,43.8182033 Z" id="Path"></path>
                        <path d="M165.177305,53.8333333 C165.257683,55.2238771 165.687707,55.8910165 166.587943,55.8910165 C166.945608,55.910297 167.294357,55.7752045 167.545702,55.5200159 C167.797048,55.2648272 167.926833,54.9140686 167.902128,54.5567376 C167.902128,53.3992908 167.098345,52.6959811 165.981087,51.5586288 C164.433806,50.0113475 163.336643,48.8739953 163.336643,47.049409 C163.306317,46.1476853 163.640367,45.271735 164.263427,44.6191853 C164.886488,43.9666355 165.746065,43.5924634 166.648227,43.5810875 C168.41253,43.5810875 169.686525,44.8550827 169.843262,47.0092199 L167.765485,47.3026005 C167.685106,46.0969267 167.363593,45.578487 166.587943,45.578487 C165.920804,45.578487 165.450591,46.0687943 165.450591,46.8524823 C165.450591,48.106383 166.370922,48.9503546 167.588652,50.1238771 C169.059574,51.5546099 169.979905,52.5914894 169.979905,54.5125296 C169.979905,56.5501182 168.569267,57.9607565 166.668322,57.9607565 C164.590544,57.9607565 163.240189,56.5702128 163.139716,54.1387707 L165.177305,53.8333333 Z" id="Path"></path>
                        <polygon id="Path" points="62.6950355 34.5224586 65.9101655 34.5224586 65.9101655 35.4950355 64.8210402 35.4950355 64.8210402 41.258156 63.7801418 41.258156 63.7801418 35.4950355 62.7030733 35.4950355 62.7030733 34.5224586"></polygon>
                        <polygon id="Path" points="67.401182 34.5224586 67.401182 37.2713948 68.4420804 37.2713948 68.4420804 34.5224586 69.4829787 34.5224586 69.4829787 41.258156 68.4420804 41.258156 68.4420804 38.2439716 67.401182 38.2439716 67.401182 41.258156 66.3723404 41.258156 66.3723404 34.5224586"></polygon>
                        <polygon id="Path" points="70.5560284 34.5224586 73.2647754 34.5224586 73.2647754 35.4950355 71.5969267 35.4950355 71.5969267 37.2593381 72.8026005 37.2593381 72.8026005 38.2319149 71.5969267 38.2319149 71.5969267 40.2413712 73.2647754 40.2413712 73.2647754 41.2541371 70.5560284 41.2541371"></polygon>
                        <path d="M62.8115839,67.8553191 L62.8115839,67.6021277 C63.0226942,67.5979857 63.2280097,67.5323406 63.4023641,67.4132388 C63.4815898,67.271901 63.5244046,67.1130719 63.5269504,66.9510638 L63.5751773,65.6328605 L63.6314421,64.2905437 C63.6314421,64.2101655 63.6314421,64.1579196 63.6314421,64.141844 C63.6512687,63.9388892 63.6307815,63.7340169 63.5711584,63.5390071 C63.4284094,63.4447937 63.2635811,63.3893892 63.0929078,63.3782506 L62.9281324,63.3420804 C62.9281324,63.2817967 62.9281324,63.2295508 62.9281324,63.1853428 L62.9281324,63.0687943 C63.0192277,63.0687943 63.1263987,63.0687943 63.2496454,63.0687943 L64.3347518,63.1049645 L64.4392435,63.1049645 L64.6080378,63.1049645 C64.6572218,63.1662586 64.7002951,63.2322145 64.736643,63.3018913 C64.8277384,63.4814027 64.9483058,63.7493302 65.0983452,64.1056738 L65.1425532,64.2061466 L65.7172577,65.4640662 L65.7775414,65.5926714 L65.8981087,65.8458629 L66.022695,66.1111111 L66.1432624,66.3683215 C66.1801782,66.3044837 66.2137153,66.2387509 66.2437352,66.1713948 C66.3428684,65.9436564 66.4393223,65.734673 66.5330969,65.5444444 C66.6965327,65.2095351 66.9175729,64.6951143 67.1962175,64.001182 C67.2417652,63.8913318 67.3154452,63.7238771 67.4172577,63.498818 C67.5190701,63.2737589 67.5753349,63.1558708 67.586052,63.1451537 C67.6259054,63.1212987 67.6725702,63.1114001 67.7186761,63.1170213 L67.8352246,63.1170213 L68.2973995,63.1170213 C68.565327,63.1170213 68.7729708,63.1089835 68.920331,63.0929078 L69.1855792,63.0728132 L69.2739953,63.0728132 C69.2739953,63.1089835 69.2739953,63.1330969 69.2739953,63.1531915 L69.2739953,63.265721 C69.2739953,63.2898345 69.2739953,63.3219858 69.2739953,63.3661939 C69.0785445,63.3908808 68.8876848,63.4436718 68.7073286,63.5229314 C68.6239088,63.5482833 68.5637593,63.6210957 68.5546099,63.7078014 L68.5546099,63.7640662 L68.6189125,64.8973995 C68.6189125,65.0018913 68.6390071,65.5176517 68.6791962,66.4446809 C68.6791962,66.650985 68.6952719,66.9189125 68.7274232,67.2484634 C68.7291963,67.2792495 68.7291963,67.3101122 68.7274232,67.3408983 C68.7233254,67.3837328 68.7379838,67.4262421 68.7676123,67.4574468 C68.7917258,67.4735225 69.0141056,67.5458629 69.4347518,67.6744681 C69.4347518,67.7146572 69.4347518,67.7427896 69.4347518,67.7628842 C69.4347518,67.7829787 69.4347518,67.8673759 69.4347518,67.9196217 C69.3677699,67.9196217 69.2003152,67.9048857 68.9323877,67.8754137 C68.6814798,67.847504 68.4292829,67.8327478 68.1768322,67.8312057 C67.8178093,67.8312057 67.4695035,67.8459417 67.1319149,67.8754137 L67.0033097,67.8754137 L67.0033097,67.6182033 C67.1335525,67.5712783 67.2681984,67.5376168 67.4052009,67.5177305 C67.4902021,67.5138004 67.5705839,67.4779157 67.63026,67.4172577 C67.6760934,67.2885639 67.6925711,67.1512503 67.678487,67.0153664 C67.678487,66.9349882 67.678487,66.8626478 67.678487,66.7983452 C67.678487,66.5304177 67.6704492,66.1700552 67.6543735,65.7172577 L67.5900709,64.4070922 C67.5900709,64.2222222 67.5820331,64.0882585 67.5659574,64.0052009 L66.6416076,66.1271868 L66.5411348,66.344208 L66.4245863,66.5933806 C66.2343578,67.0515366 66.100394,67.401182 66.022695,67.6423168 C66.0039401,67.7039401 65.9744681,67.7843184 65.934279,67.8834515 L65.6489362,67.8834515 L65.4479905,67.3167849 C65.3890465,67.1694247 65.287234,66.9443656 65.1425532,66.6416076 C65.0594957,66.4674547 64.9938534,66.3254531 64.9456265,66.2156028 L64.9295508,66.1271868 L64.8853428,66.0347518 C64.8870467,66.0227552 64.8870467,66.0105781 64.8853428,65.9985816 L64.3307329,64.7929078 L63.9931442,64.0695035 L63.9489362,65.8458629 L63.9248227,66.9832151 C63.9113099,67.1252983 63.9483078,67.2675982 64.0293144,67.3851064 C64.1588561,67.4940629 64.3160467,67.5650073 64.4834515,67.5900709 L64.6602837,67.634279 L64.6602837,67.9035461 C64.5156028,67.9035461 64.3615445,67.892829 64.1981087,67.8713948 C63.9804052,67.8503505 63.7617322,67.8409596 63.543026,67.8432624 L62.8115839,67.8553191 Z" id="Path"></path>
                        <path d="M71.1669031,63.0728132 C71.3089046,63.0728132 71.4308117,63.0835303 71.5326241,63.1049645 C71.7578371,63.1338809 71.9847688,63.1473089 72.2118203,63.1451537 L72.8990544,63.1210402 C73.450985,63.099606 73.9493302,63.0888889 74.3940898,63.0888889 L75.0652482,63.0888889 C75.2885245,63.0948077 75.5112739,63.1135938 75.7323877,63.1451537 C75.7797913,63.2010641 75.8042093,63.2728816 75.8007092,63.3460993 L75.8007092,64.1096927 L75.8007092,64.2624113 C75.8007092,64.2624113 75.8007092,64.2985816 75.8007092,64.3307329 L75.6479905,64.3307329 L75.5234043,64.3307329 C75.4992908,64.2825059 75.4711584,64.2101655 75.4349882,64.1137116 L75.2862884,63.8484634 C75.2214577,63.7253619 75.1418291,63.6106428 75.0491726,63.5068558 C74.9715538,63.4879718 74.8919394,63.478526 74.8120567,63.4787234 L74.5749409,63.4345154 C74.3445232,63.4157604 74.0966903,63.406383 73.8314421,63.406383 C73.5661939,63.406383 73.2982664,63.406383 73.0276596,63.406383 C73.0276596,63.4680063 73.0276596,63.7118203 73.0276596,64.1378251 L73.0276596,65.2269504 L73.1884161,65.2269504 C73.6304965,65.2269504 73.9466509,65.2189125 74.1368794,65.2028369 C74.2570328,65.2017794 74.3758162,65.1772035 74.4865248,65.1304965 C74.5404898,65.0887782 74.5821529,65.0332274 74.6070922,64.96974 C74.6600845,64.7900808 74.7030196,64.6076069 74.7356974,64.4231678 L75.0009456,64.4231678 C75.0009456,64.6428684 75.0009456,64.8103231 75.0009456,64.9255319 C75.0009456,65.1934594 75.0009456,65.3609141 75.0009456,65.427896 C75.0009456,65.5002364 75.0009456,65.5605201 75.0009456,65.6007092 C75.0009456,65.6408983 75.0009456,65.7735225 75.0009456,65.9222222 C75.0009456,66.070922 75.0009456,66.1794326 75.0009456,66.251773 L75.0009456,66.3321513 L74.7397163,66.3321513 C74.7397163,66.2919622 74.7209614,66.2102443 74.6834515,66.0869976 C74.6611332,65.9377997 74.6164214,65.7928253 74.5508274,65.656974 C74.514208,65.6074648 74.4617249,65.5720033 74.4021277,65.5565012 C74.2197541,65.5312757 74.0354173,65.5232025 73.8515366,65.5323877 C73.4764381,65.5323877 73.1951143,65.5417652 73.007565,65.5605201 L73.007565,65.6851064 C73.007565,65.9798266 73.007565,66.2249803 73.007565,66.4205674 L73.007565,67.2243499 C72.9992864,67.3029929 73.0388527,67.3789604 73.1080378,67.4172577 C73.4129761,67.4910153 73.7275499,67.5167778 74.0404255,67.493617 C74.334331,67.4988068 74.6279723,67.4732142 74.9165485,67.4172577 C75.0839085,67.3791204 75.2362928,67.2924431 75.3546099,67.1680851 C75.5369628,66.9678883 75.6740374,66.7307494 75.7565012,66.4728132 L75.9453901,66.4728132 L76.0659574,66.4728132 L76.0659574,66.6295508 L76.0458629,66.7420804 L75.9333333,67.4534279 L75.8690307,67.8754137 L75.4671395,67.8754137 C75.3278172,67.8754137 74.9580772,67.863357 74.3579196,67.8392435 C73.9345942,67.8231678 73.4255319,67.81513 72.8307329,67.81513 C72.5333333,67.81513 72.1689519,67.8271868 71.7375887,67.8513002 L71.5808511,67.8513002 L71.1307329,67.8513002 L71.1307329,67.5940898 C71.2236046,67.5749942 71.3175531,67.5615729 71.4120567,67.5539007 C71.5953455,67.5412804 71.7756137,67.5006184 71.9465721,67.4333333 C71.9759055,67.3466892 71.9895159,67.2554996 71.9867612,67.1640662 C71.9867612,67.1211978 71.9867612,67.0488574 71.9867612,66.9470449 L71.9867612,66.8304965 L71.9867612,65.4319149 L71.9867612,65.0300236 L71.9867612,64.4352246 L71.9867612,64.0333333 L71.9546099,63.5751773 C71.9558231,63.5510791 71.9558231,63.5269351 71.9546099,63.5028369 C71.9244339,63.4726977 71.8845773,63.4541929 71.8420804,63.450591 L71.721513,63.4345154 C71.5892527,63.4058534 71.4548142,63.3883764 71.3196217,63.3822695 L71.1548463,63.3822695 L71.1669031,63.0728132 Z" id="Path"></path>
                        <path d="M77.7900709,67.5659574 L78.0191489,67.5217494 C78.1818406,67.5081425 78.3382655,67.4527708 78.4732861,67.3609929 C78.5268974,67.291934 78.5565275,67.2072766 78.5576832,67.1198582 C78.5576832,67.0903861 78.565721,66.713948 78.5817967,65.9905437 L78.5817967,65.0903073 L78.5817967,63.8283688 L78.5817967,63.679669 C78.5853579,63.6250558 78.5664892,63.5713529 78.5295508,63.5309693 C78.4849978,63.5081029 78.4344308,63.4996751 78.38487,63.5068558 C78.3106332,63.5085172 78.2366786,63.516585 78.1638298,63.5309693 C78.0655541,63.534356 77.9675776,63.543751 77.8704492,63.5591017 L77.7981087,63.5591017 L77.7981087,63.2335697 C78.0036516,63.1734638 78.213146,63.1278047 78.4250591,63.0969267 C78.9744594,63.0153632 79.5294883,62.9777341 80.08487,62.9843972 C80.4889149,62.9718078 80.8931399,63.0027984 81.2905437,63.0768322 C81.6307175,63.1526056 81.9511364,63.2991219 82.2309693,63.5068558 C82.5381748,63.7417516 82.7870944,64.0443059 82.9583924,64.3910165 C83.1210435,64.7322543 83.2035232,65.1061626 83.1995272,65.4841608 C83.2126364,65.9334942 83.0998833,66.3775463 82.8739953,66.7661939 C82.6462026,67.1319561 82.3222717,67.4280818 81.9375887,67.6222222 C81.5720219,67.7920537 81.1707102,67.8706611 80.7680851,67.8513002 L80.0085106,67.8231678 L79.7874704,67.8231678 L79.486052,67.8231678 L79.3976359,67.8231678 L79.0841608,67.8231678 L78.6822695,67.8231678 L78.3044917,67.8472813 L77.9910165,67.8472813 L77.8141844,67.8472813 C77.7981087,67.8070922 77.7900709,67.7133176 77.7900709,67.5659574 Z M79.6066194,63.4345154 C79.6066194,63.5122143 79.6066194,63.5671395 79.6066194,63.5992908 L79.6066194,64.23026 L79.6066194,64.7768322 C79.6066194,64.9536643 79.6066194,65.1090623 79.6066194,65.243026 L79.6066194,65.5966903 L79.6066194,66.1874704 L79.6066194,66.5491726 C79.5782734,66.794063 79.6459815,67.0404052 79.7955083,67.2364066 C80.0034475,67.4190419 80.2747246,67.5128345 80.5510638,67.4976359 C80.73454,67.5073404 80.9182749,67.4842034 81.093617,67.4293144 C81.3115494,67.3509248 81.5082896,67.2229749 81.6683215,67.0555556 C81.8284717,66.8653709 81.9401674,66.6392215 81.9938534,66.3964539 C82.0690145,66.1077576 82.1068329,65.8106126 82.106383,65.5122931 C82.1193424,65.0972432 82.0368453,64.684758 81.8652482,64.3066194 C81.722536,64.009601 81.4944455,63.7619199 81.2101655,63.5952719 C80.7193208,63.327243 80.1409015,63.2692561 79.6066194,63.4345154 L79.6066194,63.4345154 Z" id="Shape"></path>
                        <path d="M84.9035461,67.8754137 L84.9035461,67.6101655 L85.1486998,67.5458629 C85.2722484,67.5198591 85.3923035,67.4793911 85.506383,67.4252955 C85.5561188,67.3271139 85.5796527,67.2177505 85.5747045,67.1078014 L85.5747045,66.6496454 L85.5747045,65.8056738 L85.5747045,65.6047281 C85.5934594,65.1144208 85.6028369,64.862569 85.6028369,64.8491726 L85.6028369,64.3548463 L85.6028369,64.1539007 L85.6028369,63.7319149 L85.6028369,63.5711584 C85.5976903,63.5317664 85.5896304,63.4928101 85.5787234,63.4546099 C85.4203399,63.3966285 85.2530593,63.3667084 85.0843972,63.3661939 L84.955792,63.3661939 L84.955792,63.0406619 L86.0167849,63.08487 L86.2619385,63.08487 C86.4066194,63.08487 86.6397163,63.0754925 86.9612293,63.0567376 L87.3028369,63.0326241 C87.3028369,63.0808511 87.3028369,63.1210402 87.3028369,63.1491726 C87.3028369,63.177305 87.3028369,63.2456265 87.3028369,63.313948 C87.2037037,63.3487786 87.0911742,63.3809299 86.9652482,63.4104019 C86.8587547,63.4356451 86.7540369,63.4678659 86.651773,63.5068558 C86.6339412,63.5981765 86.625858,63.6911328 86.6276596,63.7841608 C86.6230846,63.8711771 86.6230846,63.9583737 86.6276596,64.0453901 C86.6276596,64.463357 86.6276596,64.78487 86.6276596,65.0099291 L86.6276596,65.9905437 L86.6276596,66.4888889 L86.6276596,67.2323877 L86.6276596,67.3730496 C86.6307226,67.4023714 86.638883,67.4309328 86.651773,67.4574468 C86.7844003,67.4874836 86.9185619,67.5102911 87.0536643,67.5257683 L87.2787234,67.5539007 C87.2826427,67.6154617 87.2826427,67.6772097 87.2787234,67.7387707 C87.2787234,67.7655634 87.2787234,67.8070922 87.2787234,67.863357 L87.206383,67.863357 L87.06974,67.863357 L86.9732861,67.863357 L86.4789598,67.8111111 L85.8238771,67.8111111 C85.6925926,67.8111111 85.5023641,67.8231678 85.2531915,67.8472813 L84.9035461,67.8754137 Z" id="Path"></path>
                        <path d="M88.9264775,67.8553191 L88.9264775,67.6021277 C89.0084991,67.5790482 89.0916698,67.5602677 89.1756501,67.5458629 C89.2953933,67.5305998 89.4120119,67.4966991 89.5212766,67.4453901 C89.5847565,67.3836366 89.6353057,67.309862 89.6699764,67.2283688 L90.4174941,65.2671395 L91.2976359,62.9643026 L91.6995272,62.9643026 L91.7316785,63.0326241 L92.3747045,64.5598109 C92.5193853,64.8840032 92.6533491,65.198818 92.7765957,65.5042553 C92.8998424,65.8096927 93.0003152,66.0588652 93.0780142,66.251773 C93.1262411,66.3669819 93.1945626,66.5411348 93.2829787,66.7742317 C93.342891,66.9358122 93.4113081,67.0941105 93.4879433,67.2484634 C93.5138564,67.3152323 93.5520216,67.3765692 93.6004728,67.4293144 C93.6647727,67.47295 93.7398729,67.4979834 93.8174941,67.5016548 C93.9290271,67.5164749 94.0383416,67.5448157 94.143026,67.586052 C94.1470916,67.6462671 94.1470916,67.7066879 94.143026,67.7669031 C94.143026,67.7669031 94.143026,67.8111111 94.143026,67.8472813 C93.9608353,67.8472813 93.7598897,67.8392435 93.5401891,67.8231678 C93.3204886,67.8070922 93.1222222,67.7990544 92.9453901,67.7990544 L92.5234043,67.7990544 L91.892435,67.8312057 L91.7115839,67.8312057 C91.7115839,67.7454689 91.7115839,67.6624113 91.7115839,67.5820331 L92.1134752,67.493617 C92.1890377,67.4805378 92.2621989,67.4561508 92.3304965,67.4212766 C92.353594,67.3992789 92.3666667,67.3687761 92.3666667,67.3368794 C92.3723649,67.3036309 92.3723649,67.2696552 92.3666667,67.2364066 L92.2179669,66.8747045 L91.9286052,66.1472813 L90.513948,66.1472813 C90.4603625,66.2651694 90.3518519,66.5558708 90.1884161,67.0193853 C90.1521159,67.1040179 90.127769,67.19329 90.1160757,67.2846336 C90.1112091,67.3358392 90.1305335,67.38638 90.1683215,67.4212766 C90.2664598,67.4820434 90.3785383,67.5166356 90.4938534,67.5217494 L90.7591017,67.5619385 C90.7591017,67.6503546 90.7591017,67.7146572 90.7591017,67.7468085 C90.7613776,67.7748949 90.7613776,67.8031193 90.7591017,67.8312057 C90.606383,67.8312057 90.2406619,67.8097715 89.6619385,67.7669031 L89.5092199,67.7910165 C89.3365303,67.8197076 89.1618164,67.834491 88.9867612,67.8352246 L88.9184397,67.8352246 L88.9264775,67.8553191 Z M90.6706856,65.7695035 L91.6914894,65.7695035 L91.7839243,65.7695035 C91.7089046,65.549803 91.6124507,65.2939322 91.4945626,65.0018913 C91.3766745,64.7098503 91.2802206,64.4861308 91.2052009,64.3307329 L90.6706856,65.7695035 Z" id="Shape"></path>
                        <path d="M99.5484634,63.1531915 C99.5806147,63.2282112 99.6462569,63.4398739 99.7453901,63.7881797 C99.7912056,63.9517848 99.8155235,64.120659 99.8177305,64.2905437 L99.4921986,64.2905437 C99.3010338,64.0000523 99.0503489,63.753477 98.7567376,63.5671395 C98.5003835,63.4189686 98.20884,63.342612 97.912766,63.3460993 C97.5485595,63.336401 97.2023471,63.5042616 96.9843972,63.7962175 C96.6381257,64.2913603 96.4695699,64.8890962 96.5061466,65.4921986 C96.4935397,65.7931695 96.5205641,66.0944916 96.5865248,66.3884161 C96.6583978,66.6415289 96.7725348,66.8806732 96.9241135,67.0957447 C97.0298636,67.2360881 97.1676653,67.3490854 97.3260047,67.4252955 C97.5409086,67.5364053 97.7793488,67.5942926 98.0212766,67.5940898 C98.3088233,67.5940795 98.5894191,67.5056919 98.8250591,67.3408983 C99.1127517,67.1368716 99.3595136,66.8805664 99.5524823,66.5853428 C99.6720941,66.5662296 99.7930558,66.5568215 99.9141844,66.5572104 C99.9036149,66.6558298 99.8875139,66.7537777 99.8659574,66.850591 L99.7815603,67.3208038 L99.749409,67.4333333 L99.6971631,67.6061466 C99.507345,67.7389669 99.2905064,67.8281726 99.0621749,67.8673759 C98.7298312,67.9312448 98.3918149,67.9608717 98.0534279,67.955792 C97.7632584,67.957701 97.4736775,67.9294164 97.1893617,67.8713948 C96.9431907,67.824553 96.7075967,67.7333113 96.4940898,67.6021277 C96.2411047,67.4492122 96.0167069,67.2533741 95.8309693,67.0234043 C95.6725469,66.8199181 95.5514461,66.5899625 95.4732861,66.344208 C95.3943214,66.0836472 95.3550316,65.8126836 95.3567376,65.5404255 C95.3348045,64.8575142 95.5983989,64.1963436 96.0841608,63.7158392 C96.580082,63.2318978 97.2524309,62.9719616 97.9449173,62.9964539 C98.2336173,62.9962594 98.5220982,63.0123607 98.8089835,63.0446809 C99.0576894,63.0637078 99.3047758,63.0999651 99.5484634,63.1531915 L99.5484634,63.1531915 Z" id="Path"></path>
                        <path d="M101.610165,67.8754137 L101.610165,67.6101655 L101.855319,67.5458629 C101.978868,67.5198591 102.098923,67.4793911 102.213002,67.4252955 C102.262738,67.3271139 102.286272,67.2177505 102.281324,67.1078014 L102.281324,66.6496454 L102.281324,65.8056738 L102.281324,65.6047281 C102.300079,65.1144208 102.309456,64.862569 102.309456,64.8491726 L102.309456,64.3548463 L102.309456,64.1539007 L102.309456,63.7319149 L102.309456,63.5711584 C102.30431,63.5317664 102.29625,63.4928101 102.285343,63.4546099 C102.126959,63.3966285 101.959679,63.3667084 101.791017,63.3661939 L101.662411,63.3661939 L101.662411,63.0406619 L102.723404,63.08487 L102.968558,63.08487 C103.113239,63.08487 103.346336,63.0754925 103.667849,63.0567376 L104.009456,63.0326241 C104.009456,63.0808511 104.009456,63.1210402 104.009456,63.1491726 C104.009456,63.177305 104.009456,63.2456265 104.009456,63.313948 C103.910323,63.3487786 103.797794,63.3809299 103.671868,63.4104019 C103.565374,63.4356451 103.460656,63.4678659 103.358392,63.5068558 C103.340561,63.5981765 103.332477,63.6911328 103.334279,63.7841608 C103.329704,63.8711771 103.329704,63.9583737 103.334279,64.0453901 C103.334279,64.463357 103.334279,64.78487 103.334279,65.0099291 L103.334279,65.9905437 L103.334279,66.4888889 L103.334279,67.2323877 L103.334279,67.3730496 C103.337342,67.4023714 103.345502,67.4309328 103.358392,67.4574468 C103.49102,67.4874836 103.625181,67.5102911 103.760284,67.5257683 L103.985343,67.5539007 C103.989262,67.6154617 103.989262,67.6772097 103.985343,67.7387707 C103.985343,67.7655634 103.985343,67.8070922 103.985343,67.863357 L103.913002,67.863357 L103.776359,67.863357 L103.679905,67.863357 L103.185579,67.8111111 L102.530496,67.8111111 C102.399212,67.8111111 102.208983,67.8231678 101.959811,67.8472813 L101.610165,67.8754137 Z" id="Path"></path>
                        <path d="M105.966667,62.8678487 L106.195745,62.8678487 L106.231915,62.9281324 C106.276755,63.0127598 106.330657,63.0922649 106.392671,63.1652482 C106.424823,63.1652482 106.593617,63.1652482 106.899054,63.1652482 L107.405437,63.1652482 L107.477778,63.1652482 L109.90922,63.1652482 L110.126241,63.1371158 C110.176402,63.0870948 110.21245,63.024704 110.230733,62.9562648 L110.270922,62.8638298 L110.544208,62.8638298 C110.544208,63.0353034 110.544208,63.2925138 110.544208,63.635461 L110.544208,64.1539007 C110.549987,64.2100171 110.549987,64.2665786 110.544208,64.322695 C110.4581,64.351855 110.369213,64.3720564 110.27896,64.3829787 C110.197299,64.2556046 110.127351,64.1210905 110.069976,63.9810875 C110.032039,63.8747117 109.983572,63.7723913 109.925296,63.6756501 C109.897683,63.6442441 109.861283,63.6218443 109.820804,63.6113475 C109.76186,63.6113475 109.493932,63.6113475 109.017021,63.6113475 L108.755792,63.6113475 C108.75097,63.6903126 108.75097,63.7694983 108.755792,63.8484634 L108.755792,65.4359338 L108.755792,66.6094563 L108.755792,67.0515366 C108.748691,67.1870098 108.763621,67.3227376 108.8,67.4534279 C108.871523,67.478155 108.945718,67.4943429 109.02104,67.5016548 L109.298345,67.5619385 C109.36535,67.5772764 109.431163,67.5974232 109.495272,67.6222222 C109.495272,67.7106383 109.495272,67.7669031 109.495272,67.7869976 C109.497865,67.8190966 109.497865,67.8513525 109.495272,67.8834515 L109.362648,67.8834515 C109.153331,67.8842839 108.944098,67.8748953 108.735697,67.8553191 C108.558865,67.8365642 108.236013,67.8271868 107.767139,67.8271868 C107.69212,67.8271868 107.475099,67.8419228 107.116076,67.8713948 L106.84279,67.8713948 C106.84279,67.8352246 106.84279,67.8070922 106.84279,67.7869976 L106.84279,67.6704492 C106.924487,67.5830042 107.033727,67.5262559 107.152246,67.5096927 C107.335593,67.4713627 107.514653,67.4148173 107.686761,67.3408983 C107.714037,67.282965 107.729086,67.2200338 107.730969,67.1560284 C107.747045,66.8586288 107.755083,66.3870764 107.755083,65.7413712 L107.755083,64.3387707 C107.760728,64.1054028 107.752676,63.8719046 107.730969,63.6394799 C107.727017,63.5997475 107.694498,63.5689398 107.65461,63.5671395 C107.576911,63.5671395 107.327738,63.5671395 106.907092,63.5671395 C106.748561,63.5553607 106.589383,63.5786885 106.440898,63.635461 C106.255948,63.7766037 106.094529,63.9461607 105.962648,64.1378251 C105.932306,64.1916028 105.883895,64.2328942 105.826005,64.2543735 C105.746507,64.2178574 105.673267,64.1690305 105.608983,64.1096927 C105.737154,63.795968 105.843244,63.4736699 105.926478,63.1451537 C105.923798,63.0085106 105.937195,62.9160757 105.966667,62.8678487 Z" id="Path"></path>
                        <path d="M112.159811,63.1009456 C112.312404,63.0749276 112.467364,63.0654952 112.621986,63.0728132 L112.658156,63.0728132 L112.786761,63.0728132 L112.822931,63.0728132 L113.128369,63.0969267 C113.433806,63.1183609 113.67762,63.129078 113.859811,63.129078 C114.054767,63.1295559 114.249509,63.1161254 114.442553,63.0888889 L114.502837,63.0888889 L114.530969,63.0888889 C114.53487,63.1128446 114.53487,63.1372736 114.530969,63.1612293 L114.530969,63.3541371 C114.464722,63.3788616 114.396004,63.3963779 114.326005,63.406383 L114.15721,63.4345154 L113.908038,63.4747045 L113.883924,63.4747045 L113.883924,63.5229314 C114.035074,63.8042278 114.208437,64.073009 114.402364,64.3267139 C114.472025,64.444602 114.541686,64.555792 114.611348,64.6602837 C114.630102,64.6870764 114.701103,64.8022853 114.82435,65.0059102 L114.864539,65.0742317 L114.932861,65.1747045 L115.013239,65.2952719 C115.050927,65.3581127 115.092539,65.4185161 115.137825,65.4761229 L115.539716,64.9335697 C115.665642,64.770134 115.830418,64.5330181 116.034043,64.2222222 L116.034043,64.2222222 L116.347518,63.6635934 C116.38528,63.6172596 116.410224,63.5618285 116.419858,63.5028369 C116.422062,63.4814593 116.422062,63.4599118 116.419858,63.4385343 C116.39206,63.4181844 116.360713,63.4031925 116.327423,63.3943262 L116.170686,63.3943262 L116.021986,63.3702128 L115.905437,63.3460993 C115.905437,63.313948 115.8974,63.2228526 115.881324,63.0728132 L116.640898,63.1130024 L116.733333,63.1130024 L116.974468,63.1130024 C117.054846,63.1130024 117.157998,63.1036249 117.283924,63.08487 L117.392435,63.08487 L117.392435,63.3621749 L117.344208,63.3621749 C117.194083,63.3768043 117.048828,63.4233955 116.918203,63.498818 C116.735496,63.6746956 116.583373,63.8797897 116.468085,64.1056738 L115.985816,64.829078 C115.696454,65.2229314 115.510244,65.4908589 115.427187,65.6328605 C115.402311,65.6727821 115.383358,65.7161017 115.370922,65.7614657 L115.370922,66.2879433 C115.367051,66.3548692 115.367051,66.4219629 115.370922,66.4888889 L115.370922,67.4373522 C115.378977,67.455196 115.393267,67.4694864 115.411111,67.4775414 C115.489371,67.4942438 115.568547,67.5063214 115.648227,67.5137116 C115.784201,67.5197827 115.919038,67.5413566 116.050118,67.5780142 C116.071288,67.5957022 116.081909,67.6230112 116.078251,67.6503546 C116.080171,67.6797954 116.080171,67.7093299 116.078251,67.7387707 C116.078251,67.7628842 116.078251,67.7950355 116.078251,67.8432624 L115.652246,67.8432624 L115.250355,67.8111111 L114.977069,67.8111111 L114.575177,67.8111111 L114.265721,67.8111111 C114.209612,67.8051869 114.153036,67.8051869 114.096927,67.8111111 C114.005289,67.827149 113.912613,67.8365509 113.819622,67.8392435 L113.558392,67.8392435 C113.558392,67.7869976 113.558392,67.7468085 113.558392,67.7186761 C113.558392,67.6905437 113.558392,67.6503546 113.558392,67.5981087 L114.241608,67.4574468 L114.326005,67.4212766 C114.326005,67.308747 114.326005,67.2364066 114.326005,67.2082742 C114.326005,66.8304965 114.326005,66.5732861 114.326005,66.436643 C114.326005,66.3 114.326005,66.2196217 114.326005,66.1955083 L114.326005,66.1111111 C114.30669,65.9092676 114.22039,65.7196916 114.080851,65.5725768 C114.01119,65.48684 113.968322,65.4305753 113.952246,65.4037825 L113.224823,64.2985816 L112.883215,63.7479905 L112.654137,63.4425532 C112.616758,63.4078415 112.573113,63.3805632 112.525532,63.3621749 C112.501418,63.3621749 112.388889,63.3367218 112.187943,63.2858156 C112.183167,63.2660048 112.183167,63.2453427 112.187943,63.2255319 C112.186984,63.2067892 112.186984,63.1880098 112.187943,63.1692671 C112.155792,63.1813239 112.155792,63.1451537 112.159811,63.1009456 Z" id="Path"></path>
                        <path d="M120.977305,63.1371158 C120.981471,63.1691322 120.981471,63.2015534 120.977305,63.2335697 C120.97993,63.256268 120.97993,63.279193 120.977305,63.3018913 C120.92629,63.3165309 120.873623,63.3246335 120.820567,63.3260047 L120.635697,63.3260047 C120.541183,63.3218753 120.447542,63.345635 120.36643,63.3943262 C120.325706,63.4177366 120.296579,63.4570582 120.286052,63.5028369 L120.249882,63.9248227 L120.249882,65.7614657 C120.236033,66.1819612 120.258893,66.6028633 120.318203,67.0193853 C120.354298,67.169122 120.427556,67.3073441 120.531206,67.4212766 C120.656359,67.5443484 120.809404,67.6353481 120.977305,67.6865248 C121.162989,67.7535606 121.358626,67.788884 121.556028,67.7910165 C121.887401,67.8090862 122.218249,67.7470521 122.520567,67.6101655 C122.732888,67.5012319 122.902657,67.3243899 123.002837,67.1078014 C123.116035,66.7966521 123.165245,66.4658505 123.147518,66.1352246 C123.147518,66.1352246 123.147518,66.022695 123.147518,65.8378251 L123.147518,65.7293144 C123.147518,65.6891253 123.147518,65.6114263 123.147518,65.4962175 C123.147518,65.3810087 123.147518,65.3140268 123.147518,65.2952719 L123.091253,64.23026 C123.090705,64.017195 123.070525,63.8046336 123.030969,63.5952719 C123.012856,63.5380057 122.977829,63.4875658 122.930496,63.450591 C122.760281,63.3547657 122.57346,63.2920375 122.379905,63.265721 C122.36688,63.2308424 122.358765,63.1943229 122.355792,63.1572104 C122.450845,63.1523836 122.546082,63.1523836 122.641135,63.1572104 L122.95461,63.1572104 L123.219858,63.1572104 L123.806619,63.1572104 L123.923168,63.1572104 L123.923168,63.2898345 C123.732922,63.2964578 123.546404,63.3444587 123.376596,63.4304965 C123.309537,63.5127767 123.277752,63.6182448 123.28818,63.7238771 C123.28818,63.801576 123.28818,63.9690307 123.28818,64.2262411 L123.312293,64.9938534 L123.312293,65.2992908 L123.312293,65.701182 C123.320112,66.0325912 123.306688,66.364161 123.272104,66.6938534 C123.245656,66.8955241 123.188743,67.0920105 123.10331,67.2765957 C123.026959,67.4314217 122.918766,67.5683746 122.785816,67.678487 C122.620797,67.8080415 122.432555,67.9048905 122.231206,67.9638298 C122.010713,68.0366752 121.780198,68.0746425 121.547991,68.0763593 C121.291341,68.0875777 121.034374,68.0632334 120.784397,68.0040189 C120.538152,67.9368531 120.307421,67.8221705 120.105201,67.6664303 C119.960866,67.5594297 119.841555,67.4222907 119.755556,67.264539 C119.65636,67.0087121 119.612528,66.7347621 119.62695,66.4607565 L119.62695,66.2035461 L119.62695,65.1626478 L119.62695,64.322695 L119.62695,63.7600473 C119.635656,63.6559014 119.614759,63.551415 119.566667,63.4586288 C119.539875,63.4187299 119.494093,63.3958388 119.446099,63.3983452 L119.229078,63.3983452 C119.123102,63.4091478 119.016177,63.3910955 118.919622,63.3460993 C118.916394,63.3261343 118.916394,63.3057806 118.919622,63.2858156 C118.918984,63.2655749 118.927919,63.2462164 118.943735,63.2335697 C118.973295,63.2135566 119.008554,63.203684 119.044208,63.2054374 L119.988652,63.2054374 L120.977305,63.1371158 Z" id="Path"></path>
                        <path d="M125.695508,67.8553191 C125.7056,67.8327207 125.727123,67.8173467 125.751773,67.81513 C125.954743,67.8043595 126.154456,67.759526 126.342553,67.6825059 C126.400653,67.6212099 126.428615,67.5373249 126.418913,67.4534279 L126.418913,66.4004728 L126.418913,66.0990544 L126.394799,65.0702128 L126.394799,64.3749409 C126.394799,63.9837667 126.386761,63.7225374 126.370686,63.591253 C126.365018,63.5376268 126.348617,63.4856895 126.322459,63.4385343 C126.288245,63.4156538 126.250093,63.3993028 126.209929,63.3903073 C126.102758,63.3742317 125.968794,63.3608353 125.808038,63.3501182 C125.776895,63.3312745 125.757275,63.2980716 125.755792,63.2617021 C125.752644,63.2430793 125.752644,63.2240602 125.755792,63.2054374 C125.892435,63.2054374 126.13357,63.2054374 126.479196,63.2054374 L126.860993,63.2054374 L127.339243,63.1732861 C127.419622,63.1732861 127.516076,63.1732861 127.628605,63.1732861 C127.650588,63.1819888 127.666021,63.2020526 127.668794,63.2255319 C127.670997,63.2415321 127.670997,63.2577586 127.668794,63.2737589 C127.614672,63.2942453 127.557765,63.3064395 127.5,63.3099291 C127.343155,63.3116839 127.190485,63.3607062 127.061939,63.450591 C127.002175,63.5315049 126.974928,63.6318886 126.985579,63.7319149 L126.985579,66.1432624 L127.009693,67.0957447 C127.004646,67.2622351 127.012708,67.4288645 127.033806,67.5940898 C127.045533,67.6240972 127.066689,67.6494841 127.09409,67.6664303 C127.219014,67.7296684 127.356076,67.7653045 127.495981,67.770922 L127.624586,67.7950355 C127.638191,67.8198326 127.646408,67.8472225 127.6487,67.8754137 C127.646543,67.9052617 127.630069,67.9322185 127.604492,67.9477541 L127.483924,67.9477541 L127.126241,67.9236407 C126.938692,67.907565 126.804728,67.8995272 126.72435,67.8995272 C126.618136,67.9013139 126.512121,67.9093657 126.406856,67.9236407 C126.22263,67.9427071 126.037431,67.9507593 125.852246,67.9477541 L125.711584,67.9477541 L125.695508,67.8553191 Z M127.126241,65.5243499 C127.172602,65.4851674 127.222366,65.4501983 127.274941,65.4198582 C127.414263,65.3368006 127.652719,65.1693459 127.990307,64.9174941 L129.007092,64.0895981 C129.217864,63.9229668 129.415383,63.7402273 129.597872,63.543026 C129.615041,63.5087653 129.627221,63.4722251 129.634043,63.4345154 C129.587853,63.4023978 129.536052,63.3792238 129.481324,63.3661939 C129.392685,63.3475964 129.302582,63.3368377 129.212057,63.3340426 C129.136784,63.3356199 129.061861,63.3233599 128.991017,63.2978723 C128.96935,63.2853812 128.955672,63.2625846 128.954846,63.2375887 C128.952862,63.2136267 128.961709,63.1900348 128.97896,63.1732861 C129.020311,63.1492551 129.067875,63.1380637 129.115603,63.1411348 C129.197774,63.1400094 129.279865,63.1467381 129.360757,63.1612293 C129.516799,63.1793202 129.673952,63.1860361 129.830969,63.1813239 L129.959574,63.1813239 L130.538298,63.1531915 L130.674941,63.1531915 L130.807565,63.1531915 C130.813535,63.1998888 130.813535,63.2471561 130.807565,63.2938534 C130.606436,63.3120817 130.408147,63.3538976 130.216785,63.4184397 C130.066059,63.4914508 129.919784,63.5733116 129.778723,63.6635934 C129.619033,63.7600131 129.467184,63.8688603 129.324586,63.9891253 L128.368085,64.7929078 L127.789362,65.2591017 C127.801065,65.2788715 127.81601,65.2965329 127.83357,65.3113475 L127.946099,65.4158392 C128.214027,65.656974 128.565012,65.9543735 128.999054,66.3080378 C129.433097,66.6617021 129.778723,66.9564224 130.035934,67.1921986 C130.309126,67.4910343 130.671286,67.6939563 131.068794,67.770922 C131.130946,67.7749372 131.190143,67.7988979 131.237589,67.8392435 L131.237589,67.8794326 L131.237589,67.9316785 L131.068794,67.9316785 C130.956265,67.9316785 130.784791,67.9236407 130.554374,67.907565 L130.216785,67.907565 C129.860441,67.907565 129.45855,67.922301 129.011111,67.951773 C129.008688,67.9263776 129.008688,67.9008091 129.011111,67.8754137 L129.011111,67.8553191 C129.06901,67.8151932 129.134758,67.7877982 129.204019,67.7749409 C129.341983,67.7391222 129.48353,67.7189011 129.626005,67.7146572 L129.730496,67.7146572 C129.696538,67.6627693 129.656013,67.61549 129.609929,67.5739953 L129.509456,67.4775414 L129.208038,67.2042553 L128.765957,66.850591 L128.066667,66.2477541 C127.841608,66.0602049 127.528132,65.8177305 127.126241,65.520331 L127.126241,65.5243499 Z" id="Shape"></path>
                    </g>
                </g>
            </g>
        </g>
    </g>
</svg>