<?xml version="1.0" encoding="UTF-8"?>
<svg width="175px" height="76px" viewBox="0 0 175 76" version="1.1" xmlns="http://www.w3.org/2000/svg" xmlns:xlink="http://www.w3.org/1999/xlink">
    <!-- Generator: Sketch 58 (84663) - https://sketch.com -->
    <title>The Composer Works logo_MONO</title>
    <desc>Created with Sketch.</desc>
    <g id="Page-1" stroke="none" stroke-width="1" fill="none" fill-rule="evenodd">
        <g id="01.-TheComposerWorks_homepage" transform="translate(-168.000000, -63.000000)" fill-rule="nonzero">
            <g id="The-Composer-Works-logo_MONO" transform="translate(168.000000, 63.000000)">
                <path d="M54.0141844,12.4486359 C52.1814421,11.9038017 50.5431442,11.3754776 49.0786052,10.8636637 C43.8823877,9.09708006 39.6914894,7.52036292 37.4491726,4.01608843 C36.8777603,3.08855717 36.5005937,2.05515591 36.3404255,0.978225034 L36.3404255,0 L35.2937352,0 L35.2937352,21.5952463 C35.0206856,22.0534023 34.7352246,22.5363236 34.4332151,23.0687752 C33.9367612,23.9396844 33.5644208,24.2079739 32.3067376,24.0470002 C31.0490544,23.8860265 30.7553191,23.5310587 30.4946809,22.5652163 C30.0561466,20.9142036 29.6672577,19.675944 29.2990544,18.3633889 C29.0797872,17.5378826 28.5130024,17.4058015 27.429078,17.463587 C26.3451537,17.5213724 25.8073286,17.7772794 25.7039007,18.6110408 C25.534279,19.9607437 25.2901891,21.2567887 25.0998818,22.9366941 C24.9757683,23.9273018 24.7358156,24.3194173 23.5112293,24.6537474 C22.286643,24.9880774 21.8812057,24.7693183 21.2689125,23.9768322 C20.2387707,22.6353843 19.3823877,21.6323941 18.5549645,20.5551083 C18.0419622,19.8905757 17.3469267,19.9813814 16.4864066,20.4354099 C15.5472813,20.9307137 15.108747,21.3434669 15.3321513,22.1524631 C15.6920804,23.4608907 15.9816785,24.7486806 16.4326241,26.3790557 C16.6973995,27.3448981 16.6270686,27.7989266 15.6052009,28.570775 C14.5833333,29.3426235 14.1447991,29.3013482 13.2760047,28.8019168 C11.8073286,27.9764105 10.6323877,27.3531532 9.45330969,26.6762379 C8.7251773,26.2634848 8.21217494,26.5565395 7.49231678,27.3572807 C6.77245863,28.1580219 6.56973995,28.7234937 7.0786052,29.3838988 C7.90602837,30.4570571 8.67553191,31.5343429 9.71808511,32.8675356 C10.3345154,33.6558942 10.4420804,34.1057952 9.81323877,35.2037186 C9.18439716,36.3016421 8.74172577,36.4419781 7.74468085,36.3057696 C6.06501182,36.0870104 4.74940898,35.9796946 3.3965721,35.8022107 C2.56914894,35.6948949 2.15543735,36.1695611 1.84929078,37.1808063 C1.54314421,38.1920516 1.51832151,38.7946713 2.26300236,39.211552 C3.44621749,39.8843397 4.56323877,40.5901476 6.03605201,41.423909 C6.90898345,41.9192128 7.17789598,42.2906907 7.01654846,43.5454604 C6.85520095,44.80023 6.49940898,45.0932848 5.53132388,45.3533193 C3.87647754,45.7908376 2.63534279,46.1788256 1.31973995,46.546176 C0.492316785,46.7649351 0.359929078,47.330407 0.4178487,48.4118203 C0.475768322,49.4932337 0.732269504,50.0298128 1.5679669,50.1330011 C2.92080378,50.3022299 4.21985816,50.5457543 5.9036643,50.7356207 C6.90070922,50.8594467 7.28959811,51.0988435 7.62470449,52.3205929 C7.95981087,53.5423423 7.74054374,53.9468405 6.94621749,54.5577152 C5.60165485,55.5854706 4.5963357,56.4398697 3.51241135,57.2695035 C2.8463357,57.7813175 2.93735225,58.4747428 3.39243499,59.3332694 C3.88888889,60.2702192 4.30260047,60.7077375 5.11347518,60.4848508 C6.4249409,60.1257555 7.71572104,59.8368283 9.3498818,59.3869274 C10.3179669,59.1227653 10.7730496,59.1929334 11.5466903,60.2124337 C12.320331,61.2319341 12.2789598,61.6694524 11.7783688,62.5362341 C10.9509456,64.0015079 10.3262411,65.1737269 9.64775414,66.3500735 C9.23404255,67.0765191 9.52777778,67.588333 10.3303783,68.3065235 C11.1329787,69.0247141 11.6997636,69.2269631 12.3617021,68.7192767 C13.4373522,67.8937704 14.5171395,67.1260495 15.8534279,66.0859114 C16.643617,65.4709092 17.0945626,65.3635934 18.1950355,65.9951057 C19.2955083,66.6266181 19.4361702,67.0641365 19.2996454,68.0588716 C19.0803783,69.7346495 18.9728132,71.0472047 18.7949173,72.3969075 C18.6873522,73.2224139 19.1631206,73.5897642 20.1767139,73.9406044 C21.1903073,74.2914446 21.7943262,74.270807 22.2121749,73.5278513 C22.8865248,72.3473772 23.5939716,71.2329436 24.429669,69.7635423 C24.9261229,68.8926331 25.2984634,68.6243435 26.5561466,68.7853172 C27.8138298,68.946291 28.107565,69.3012587 28.3682033,70.2671011 C28.8067376,71.9181139 29.1956265,73.1563734 29.5638298,74.4689285 C29.7830969,75.2944349 30.3498818,75.4265159 31.4338061,75.3687304 C32.5177305,75.310945 33.0555556,75.055038 33.1589835,74.2212766 C33.3286052,72.8715737 33.572695,71.5755287 33.7630024,69.8956233 C33.8871158,68.9050157 34.1270686,68.5129001 35.3516548,68.1785701 C36.5762411,67.84424 36.9816785,68.0629992 37.5939716,68.8554853 C38.6241135,70.1969331 39.4804965,71.1999233 40.3079196,72.2772091 C40.820922,72.9417417 41.5159574,72.850936 42.3764775,72.3969075 C43.3156028,71.9016037 43.7541371,71.484723 43.5307329,70.6798543 C43.1708038,69.3714267 42.8812057,68.0836368 42.43026,66.4532618 C42.1654846,65.4874193 42.2358156,65.0333908 43.2576832,64.2615424 C44.2795508,63.4896939 44.7180851,63.5309693 45.5868794,64.0304006 C47.0555556,64.855907 48.2304965,65.4791643 49.4095745,66.1560795 C50.1377069,66.5688327 50.6507092,66.2757779 51.3705674,65.4750367 C52.0904255,64.6742956 52.2931442,64.1088237 51.784279,63.4484186 C50.9568558,62.3752604 50.1873522,61.2979746 49.1447991,59.9647818 C48.5283688,59.1764232 48.4208038,58.7265223 49.0496454,57.6285988 C49.678487,56.5306754 50.1211584,56.3903393 51.1182033,56.5265478 C52.7978723,56.745307 54.1134752,56.8567504 55.4663121,57.0301067 C56.2937352,57.1374225 56.7074468,56.6627564 57.0135934,55.6515111 C57.31974,54.6402658 57.3445626,54.0376462 56.5998818,53.6207654 C55.4166667,52.9479778 54.2996454,52.2421698 52.8268322,51.4084084 C51.9539007,50.9131046 51.6849882,50.5416267 51.8463357,49.2868571 C52.0076832,48.0320874 52.3634752,47.7390326 53.3315603,47.4789981 C54.9864066,47.0414798 56.2275414,46.6534918 57.5431442,46.2861415 C58.3705674,46.0673823 58.5029551,45.5019104 58.4450355,44.4204971 C58.3871158,43.3390838 58.1306147,42.8025046 57.2949173,42.6993163 C55.9420804,42.5300875 54.643026,42.2865632 52.9592199,42.0966967 C51.9621749,41.9728707 51.5691489,41.7334739 51.2381797,40.5117245 C50.9072104,39.2899751 51.1223404,38.885477 51.9166667,38.2746023 C53.2612293,37.2468468 54.2665485,36.3924478 55.3504728,35.5628139 C56.0165485,35.0509999 55.9255319,34.3575746 55.4704492,33.499048 C54.9739953,32.5620983 54.5602837,32.1245799 53.749409,32.3474666 C52.4379433,32.7065619 51.1471631,32.9954891 49.5130024,33.4453901 C48.5449173,33.7095521 48.0898345,33.6393841 47.3161939,32.6198837 C46.5425532,31.6003834 46.5839243,31.162865 47.0845154,30.2960833 C47.9119385,28.8308095 48.536643,27.6585905 49.21513,26.4822439 C49.6288416,25.7557984 49.3392435,25.2439844 48.5325059,24.5257939 C47.7257683,23.8076033 47.1631206,23.6053543 46.501182,24.1130407 C45.4255319,24.9385471 44.3457447,25.706268 43.0094563,26.746406 C42.7748616,26.9471307 42.5057339,27.1037582 42.21513,27.2086895 L42.21513,13.2163568 C45.3179669,15.1356591 49.7984634,16.7990544 57.1542553,19.7254744 C58.8091017,20.3858795 61.8167849,21.8470257 63.1613475,23.9685771 C65.0933806,27.0188231 64.2659574,30.8409175 59.963357,30.2671906 C57.5596927,29.9493706 52.1028369,26.2304645 52.6158392,21.8222606 C52.6406619,21.5911188 52.5413712,21.5869912 52.5206856,21.8222606 C52.2073573,24.7086432 53.4492746,27.5447734 55.78487,29.276583 C58.6808511,31.48894 61.5065012,31.294946 63.070331,29.9700083 C64.2535461,28.9670181 64.7251773,27.1921794 63.9267139,25.1160309 C62.8510638,22.3629672 60.81974,20.9472238 59.6447991,20.0969523 C56.9929078,18.1735225 52.0945626,16.5472749 47.7257683,14.8549869 C45.8273488,14.1863532 43.9859108,13.3664582 42.2192671,12.403233 L42.2192671,12.403233 L42.2192671,12.403233 C39.9479905,11.098933 37.6684397,9.2456712 36.3611111,6.57928567 L36.3611111,1.56020702 C37.3250591,5.92300811 41.0029551,9.56349115 53.6211584,13.4020957 C66.0986998,17.1952974 70.1365248,25.520529 68.1631206,31.4022618 C68.1382979,31.4724299 68.1920804,31.5302153 68.2293144,31.4311546 C71.2039007,22.8293783 62.5531915,14.9870679 54.0141844,12.4486359 Z M41.1643859,12.5229314 L41.1643859,46.6411092 C41.1843577,51.9904728 37.5793241,56.6777888 32.3950552,58.0430096 C27.2107863,59.4082303 21.7567146,57.106531 19.128021,52.4441239 C16.4993274,47.7817169 17.3599622,41.9362238 21.2215159,38.2249568 C25.0830696,34.5136898 30.9701985,33.8740336 35.5419622,36.6689924 L36.3404255,37.1601687 L36.3404255,6.79804485 C37.6973995,9.34060443 39.1205674,11.0535301 41.1601655,12.5229314 L41.1643859,12.5229314 Z" id="Shape" fill="#F3B35E"></path>
                <path d="M31.0573286,74.3162098 C30.902581,74.3244649 30.7475126,74.3077395 30.5981087,74.2666794 C30.5981087,74.2666794 30.5981087,74.2254041 30.5691489,74.1717462 C30.3995272,73.5443614 30.2216312,72.9334867 30.0313239,72.2854642 C29.8244681,71.5755287 29.6176123,70.8243179 29.3735225,69.9699189 C28.9846336,68.5170277 28.2813239,67.9309182 26.6926714,67.7286691 C26.451346,67.6954026 26.2081445,67.6774804 25.964539,67.6750112 C24.5330969,67.6750112 23.9580378,68.4757523 23.5319149,69.2228356 C23.105792,69.9699189 22.7044917,70.6715993 22.2907801,71.2866015 C21.9473995,71.8603284 21.6205674,72.4051626 21.3020095,72.9665069 C21.2826779,73.004534 21.2575572,73.0393431 21.2275414,73.0696952 C20.9821759,73.0471597 20.7412261,72.9901883 20.5118203,72.9004664 C20.258576,72.8357272 20.0199269,72.7236819 19.8085106,72.5702639 C19.8085106,72.5702639 19.8085106,72.5289886 19.8085106,72.4712031 C19.8953901,71.8273082 19.9615839,71.1916683 20.036052,70.5230081 C20.1146572,69.7883075 20.2015366,69.0123315 20.3173759,68.1372947 C20.5159574,66.6472558 20.0898345,65.8382595 18.6997636,65.0416459 C18.1884836,64.7038758 17.5953499,64.5099497 16.9828605,64.4803016 C16.3238534,64.5128822 15.6965845,64.7725447 15.2080378,65.2150022 C14.5088652,65.7598364 13.8800236,66.2262475 13.284279,66.6637659 C12.6885343,67.1012843 12.2293144,67.4479969 11.7163121,67.84424 C11.6840562,67.8716163 11.6477786,67.8938893 11.608747,67.9102805 C11.3896089,67.8069937 11.1895798,67.6674373 11.0171395,67.4975273 C10.8085878,67.3380085 10.6305984,67.1422541 10.4917258,66.9196729 C10.4917258,66.9196729 10.4917258,66.8825251 10.5413712,66.8329947 C10.8640662,66.2716504 11.1702128,65.7144336 11.4929078,65.1241965 C11.8156028,64.5339595 12.2251773,63.7868762 12.6719858,63.0150278 C13.4249409,61.7148553 13.3463357,60.8026708 12.3617021,59.539646 C11.81974,58.8420932 11.1743499,58.1981982 10.1152482,58.1981982 C9.75901745,58.2080485 9.40566587,58.2649534 9.0644208,58.367427 C8.20803783,58.6026963 7.44680851,58.7801802 6.72695035,58.9741742 C6.07328605,59.1392754 5.45271868,59.2919941 4.82801418,59.4653505 C4.79229001,59.469672 4.75617335,59.469672 4.72044917,59.4653505 C4.55684438,59.263807 4.41795658,59.043487 4.30673759,58.8090729 C4.16169741,58.6057016 4.07839699,58.3649766 4.06678487,58.1156476 L4.06678487,58.1156476 C4.08690064,58.0891583 4.11056509,58.0655487 4.13711584,58.0454795 C4.6501182,57.6327263 5.1465721,57.2529934 5.6678487,56.8319852 C6.1891253,56.4109769 6.85933806,55.8743978 7.56678487,55.3336911 C8.76241135,54.4173791 9.03546099,53.5464699 8.61761229,52.002773 C8.19976359,50.4590761 7.51713948,49.8440739 6.02364066,49.6624625 C5.14243499,49.5551466 4.36879433,49.4395757 3.62825059,49.3322599 C2.96217494,49.2331992 2.33333333,49.1423935 1.68794326,49.0598428 C1.64532463,49.0566655 1.6034568,49.046919 1.56382979,49.0309501 L1.56382979,49.0309501 C1.48325968,48.7987674 1.44405478,48.5543044 1.44799054,48.308632 C1.41321847,48.048482 1.42583232,47.7842049 1.48522459,47.5285285 L1.48522459,47.5285285 L1.58037825,47.4996358 C2.20508274,47.330407 2.821513,47.1529231 3.46276596,46.9630567 C4.17434988,46.7566801 4.92730496,46.5503035 5.78782506,46.3067791 C7.24408983,45.9146636 7.83156028,45.2171107 8.03427896,43.628011 C8.23699764,42.0389113 7.84397163,41.2175324 6.53664303,40.4745767 C5.76300236,40.0370583 5.0927896,39.6490703 4.46808511,39.2363172 C3.84338061,38.823564 3.3427896,38.5635295 2.77600473,38.2457095 C2.74133767,38.2282601 2.70930546,38.2060285 2.68085106,38.179669 L2.68085106,38.179669 C2.70354608,37.926858 2.76060994,37.6783027 2.85047281,37.4408408 C2.90100888,37.1918305 3.01020134,36.9583887 3.16903073,36.7597981 L3.27245863,36.7597981 C3.91371158,36.8423487 4.55082742,36.9125168 5.21690307,36.9868123 C5.95330969,37.0652354 6.73522459,37.1519136 7.61643026,37.2674845 C7.83574674,37.2984799 8.05687178,37.3150259 8.27836879,37.3170149 C9.5856974,37.3170149 10.2228132,36.5162737 10.7192671,35.6660022 C11.5177305,34.2791515 11.4680851,33.366967 10.5455083,32.1782378 C9.99940898,31.4806849 9.53191489,30.8533001 9.0892435,30.2589355 C8.6465721,29.664571 8.30732861,29.2064149 7.90602837,28.694601 C7.87824989,28.6626666 7.85589046,28.6264167 7.83983452,28.5872852 L7.83983452,28.5872852 C7.94272742,28.3682884 8.08267935,28.1686208 8.2535461,27.9970481 C8.41302905,27.7886068 8.60931183,27.6109628 8.83274232,27.4728516 L8.92375887,27.522382 C9.48640662,27.8443294 10.0490544,28.1538943 10.6406619,28.4758418 C11.2322695,28.7977893 11.9769504,29.2064149 12.7464539,29.6480608 C13.2102421,29.9522287 13.7475753,30.1261723 14.3020095,30.1516197 C15.0193231,30.1002477 15.6984211,29.8094646 16.2299054,29.3261133 C17.5,28.3478883 17.8061466,27.4852342 17.4048463,26.0240879 C17.1690307,25.1696888 16.9911348,24.410223 16.7966903,23.6920325 C16.6312057,23.0398824 16.4781324,22.4207527 16.3043735,21.7974954 C16.2993238,21.7605184 16.2993238,21.723029 16.3043735,21.686052 L16.3043735,21.686052 C16.5066345,21.5231746 16.7274231,21.3846355 16.9621749,21.2732988 C17.1649896,21.1448379 17.3939372,21.0630589 17.6323877,21.033902 C17.6721452,21.0442191 17.7053952,21.0713606 17.7234043,21.1081976 C18.1371158,21.6200115 18.5177305,22.1153153 18.9397163,22.6395119 C19.3617021,23.1637084 19.8995272,23.828241 20.4414894,24.5299214 C20.9338061,25.1696888 21.5378251,25.7681809 22.5969267,25.7681809 C22.9978642,25.7591325 23.3957915,25.6966667 23.7801418,25.582442 C25.3274232,25.1696888 25.9397163,24.4845186 26.1258865,22.9944796 C26.2375887,22.1111878 26.3492908,21.3434669 26.4609929,20.6005111 C26.5602837,19.9401061 26.6513002,19.3085937 26.7299054,18.6688263 C26.7330901,18.6263064 26.7428593,18.5845355 26.7588652,18.5450003 L26.7588652,18.5450003 C26.9903795,18.4654965 27.2338972,18.4267201 27.4787234,18.4294294 L27.7972813,18.4294294 C27.9518031,18.4199745 28.1068449,18.4353034 28.2565012,18.4748323 C28.2565012,18.4748323 28.2565012,18.5161076 28.285461,18.5697655 C28.4550827,19.1971503 28.6329787,19.808025 28.8232861,20.4560475 C29.0301418,21.165983 29.2369976,21.9171938 29.4810875,22.7715929 C29.8699764,24.2244841 30.5732861,24.8105936 32.1660757,25.0128426 C32.4132358,25.0622005 32.6633813,25.0952921 32.9148936,25.1119034 C34.3049645,25.1119034 34.8882979,24.3565651 35.3102837,23.6259919 L35.3102837,35.3357996 C30.2291715,32.7170188 24.0220007,33.7927199 20.1237073,37.9676295 C16.2254138,42.142539 15.5891036,48.3959205 18.5668991,53.2672657 C21.5446947,58.1386109 27.4085455,60.4369095 32.9135028,58.8903247 C38.41846,57.34374 42.2185995,52.330401 42.2109929,46.6245991 L42.2109929,28.2529551 L42.2109929,28.2529551 C42.3133509,28.2526942 42.4151124,28.2373958 42.5130024,28.2075522 C42.9252906,28.066401 43.3081103,27.8509517 43.642435,27.5719123 C44.3457447,27.0270781 44.9745863,26.5606671 45.570331,26.1148936 C46.1660757,25.6691202 46.6211584,25.3347901 47.1341608,24.9385471 C47.1664166,24.9111708 47.2026942,24.8888978 47.2417258,24.8725065 C47.4611073,24.9753744 47.6612039,25.114978 47.8333333,25.2852597 C48.0420707,25.4445771 48.2200934,25.640368 48.358747,25.8631142 C48.358747,25.8631142 48.358747,25.900262 48.3091017,25.9497923 C47.9864066,26.5111367 47.68026,27.0683535 47.357565,27.6585905 C47.03487,28.2488276 46.6252955,28.9959108 46.178487,29.7636317 C45.4255319,31.0679318 45.5041371,31.9759888 46.4887707,33.243141 C47.0265957,33.9406939 47.6761229,34.5845888 48.7352246,34.5845888 C49.0914554,34.5747385 49.4448069,34.5178336 49.786052,34.41536 C50.642435,34.1800907 51.3995272,34.0026069 52.1193853,33.8086129 C52.7730496,33.6435116 53.393617,33.4866654 54.0224586,33.3174366 C54.0581778,33.3130328 54.0943045,33.3130328 54.1300236,33.3174366 C54.2939874,33.5187235 54.4329034,33.7390883 54.5437352,33.9737141 C54.6887754,34.1770854 54.7720758,34.4178104 54.7836879,34.6671395 L54.7836879,34.6671395 C54.7631502,34.6920433 54.7395164,34.7142354 54.713357,34.73318 C54.1962175,35.1459332 53.6997636,35.5297936 53.1743499,35.9508019 C52.6489362,36.3718101 51.9869976,36.9042617 51.2836879,37.4449684 C50.0880615,38.3612804 49.8150118,39.2321896 50.2328605,40.7758865 C50.6507092,42.3195834 51.3333333,42.9304581 52.8268322,43.116197 C53.7080378,43.2235129 54.4816785,43.3390838 55.213948,43.4463996 C55.8800236,43.5454604 56.5130024,43.6362661 57.1583924,43.7188167 C57.2010111,43.721994 57.2428789,43.7317405 57.2825059,43.7477094 L57.2825059,43.7477094 C57.3621943,43.9786874 57.4013811,44.2216409 57.3983452,44.4658999 C57.4332084,44.7260461 57.4205938,44.9903396 57.3611111,45.2460035 L57.3611111,45.2460035 L57.2659574,45.2748962 C56.641253,45.444125 56.0248227,45.6216088 55.3794326,45.8114753 C54.6678487,46.0178519 53.9148936,46.2242285 53.0585106,46.4677529 C51.6022459,46.8557408 51.0147754,47.5574213 50.8120567,49.1423935 C50.6093381,50.7273657 51.0023641,51.5569996 52.3138298,52.2958277 C53.0874704,52.7333461 53.7618203,53.1213341 54.3823877,53.5340873 C55.0029551,53.9468405 55.5076832,54.206875 56.070331,54.5246949 C56.104998,54.5421443 56.1370302,54.564376 56.1654846,54.5907354 L56.1654846,54.5907354 C56.1424379,54.8434907 56.0853848,55.0919992 55.9958629,55.3295636 C55.9451757,55.5785243 55.8359991,55.8119322 55.677305,56.0106064 L55.5738771,56.0106064 C54.9326241,55.9280557 54.2996454,55.8578877 53.6294326,55.7877196 C52.8888889,55.7092965 52.106974,55.6226184 51.2257683,55.5070475 C51.0064441,55.4761231 50.7853238,55.4595774 50.5638298,55.4575171 C49.2565012,55.4575171 48.6193853,56.2582583 48.1229314,57.1085298 C47.3244681,58.4953805 47.3741135,59.4116925 48.2966903,60.5962942 C48.8427896,61.293847 49.3102837,61.9253594 49.7529551,62.5155964 C50.1956265,63.1058335 50.53487,63.5681171 50.9361702,64.079931 C50.9636101,64.1121121 50.9859348,64.1483057 51.0023641,64.1872468 L51.0023641,64.1872468 C50.899543,64.406285 50.7595829,64.6059643 50.5886525,64.7774839 C50.4285638,64.9853691 50.2323909,65.1629137 50.0094563,65.3016804 L49.9184397,65.25215 C49.355792,64.9302025 48.7931442,64.6206377 48.2015366,64.2986902 C47.6099291,63.9767427 46.8652482,63.5681171 46.0957447,63.1264712 C45.6319565,62.8223032 45.0946232,62.6483596 44.5401891,62.6229123 C43.8228755,62.6742843 43.1437775,62.9650674 42.6122931,63.4484186 C41.3421986,64.4266437 41.036052,65.2892978 41.4373522,66.7504441 C41.6731678,67.6048431 41.8510638,68.3684365 42.0455083,69.0866271 C42.2109929,69.7346495 42.3640662,70.3537793 42.5378251,70.9770366 C42.5428748,71.0140136 42.5428748,71.051503 42.5378251,71.08848 L42.5378251,71.08848 C42.3352566,71.2509276 42.1145203,71.3894338 41.8800236,71.5012331 C41.6772089,71.6296941 41.4482614,71.7114731 41.2098109,71.74063 C41.1685041,71.7314099 41.1335551,71.7041218 41.1146572,71.6663344 C40.7009456,71.1503929 40.3161939,70.6550891 39.8735225,70.1267651 C39.4308511,69.598441 38.9178487,68.9421634 38.3800236,68.240483 C37.8421986,67.5388026 37.2836879,67.0022235 36.2245863,67.0022235 C35.8236576,67.0113703 35.4257434,67.0738341 35.0413712,67.1879624 C33.4940898,67.6007156 32.8776596,68.2858859 32.6956265,69.7759249 C32.5880615,70.6509616 32.4722222,71.4269376 32.3646572,72.1533832 C32.2653664,72.8220433 32.1743499,73.4535557 32.0916076,74.0974506 C32.0884229,74.1399705 32.0786537,74.1817414 32.0626478,74.2212766 L32.0626478,74.2212766 C31.8312977,74.3014323 31.5876649,74.3405468 31.3427896,74.3370874 L31.0573286,74.3162098 Z" id="Path" fill="#F3B35E"></path>
                <path d="M65.1471631,48.2838668 C65.1471631,46.0715098 66.4172577,44.7011693 68.5975177,44.7011693 C70.5957447,44.7011693 71.9072104,46.0508721 71.9072104,48.3457798 L71.9072104,49.7161204 L69.6483452,49.7161204 L69.6483452,48.1476583 C69.6483452,47.1611782 69.2635934,46.678257 68.5189125,46.678257 C67.7742317,46.678257 67.3894799,47.1611782 67.3894799,48.1476583 L67.3894799,56.0683918 C67.3894799,57.0548719 67.7742317,57.5584308 68.5189125,57.5584308 C69.2635934,57.5584308 69.6483452,57.0548719 69.6483452,56.0683918 L69.6483452,54.1367069 L71.9072104,54.1367069 L71.9072104,55.6267459 C71.9072104,58.1445403 70.6660757,59.5107533 68.5189125,59.5107533 C66.3014184,59.5107533 65.1513002,58.1610504 65.1513002,55.5648329 L65.1513002,48.2838668 L65.1471631,48.2838668 Z" id="Path" fill="#1C1C1C"></path>
                <path d="M76.7972813,44.6970417 C78.7955083,44.6970417 80.106974,46.0467446 80.106974,48.3416523 L80.106974,55.6267459 C80.106974,58.1445403 78.8658392,59.5107533 76.7186761,59.5107533 C74.571513,59.5107533 73.3510638,58.1610504 73.3510638,55.5648329 L73.3510638,48.2838668 C73.3510638,46.0673823 74.6211584,44.6970417 76.7972813,44.6970417 Z M77.8481087,48.1394032 C77.8481087,47.1529231 77.463357,46.6700019 76.7186761,46.6700019 C75.9739953,46.6700019 75.5892435,47.1529231 75.5892435,48.1394032 L75.5892435,56.0683918 C75.5892435,57.0548719 75.9739953,57.5584308 76.7186761,57.5584308 C77.463357,57.5584308 77.8481087,57.0548719 77.8481087,56.0683918 L77.8481087,48.1394032 L77.8481087,48.1394032 Z" id="Shape" fill="#1C1C1C"></path>
                <path d="M81.7700946,45.0024791 L84.6950355,45.0024791 L86.1264775,52.8736822 C86.2523168,53.5779587 86.313249,54.2922524 86.3085106,55.0076161 C86.3140098,54.298625 86.3818428,53.591482 86.5112293,52.8943199 L87.8847518,45.0024791 L90.8345154,45.0024791 L90.8345154,59.213571 L88.7659574,59.213571 L88.7659574,50.2361894 C88.7659574,49.8234362 88.8073286,48.9979298 88.927305,47.7596703 C88.7659574,48.7255127 88.6666667,49.410683 88.5839243,49.7739058 L86.7884161,59.213571 L85.7003546,59.213571 L83.9834515,49.7739058 C83.7807329,48.626452 83.6814421,47.9412817 83.6400709,47.7596703 C83.7393617,48.8245735 83.7807329,49.6500799 83.7807329,50.2361894 L83.7807329,59.213571 L81.7411348,59.213571 L81.7411348,45.0024791 L81.7700946,45.0024791 Z" id="Path" fill="#1C1C1C"></path>
                <path d="M92.6548463,45.0024791 L95.8817967,45.0024791 C98.2606383,45.0024791 99.3114657,46.2118459 99.3114657,49.1093732 C99.3114657,51.8872021 98.1199764,53.4350265 96.3658392,53.4350265 L94.8516548,53.4350265 L94.8516548,59.213571 L92.6548463,59.213571 L92.6548463,45.0024791 Z M95.7204492,51.4042809 C96.8085106,51.4042809 97.0732861,50.8016612 97.0732861,49.1506485 C97.0732861,47.4996358 96.750591,47.0579899 95.641844,47.0579899 L94.855792,47.0579899 L94.855792,51.4042809 L95.7245863,51.4042809 L95.7204492,51.4042809 Z" id="Shape" fill="#1C1C1C"></path>
                <path d="M104.044326,44.6970417 C106.042553,44.6970417 107.354019,46.0467446 107.354019,48.3416523 L107.354019,55.6267459 C107.354019,58.1445403 106.112884,59.5107533 103.965721,59.5107533 C101.818558,59.5107533 100.598099,58.1610504 100.598099,55.5648329 L100.598099,48.2838668 C100.593972,46.0673823 101.868203,44.6970417 104.044326,44.6970417 Z M105.095154,48.1394032 C105.095154,47.1529231 104.710402,46.6700019 103.965721,46.6700019 C103.22104,46.6700019 102.832151,47.1529231 102.832151,48.1394032 L102.832151,56.0683918 C102.832151,57.0548719 103.216903,57.5584308 103.961584,57.5584308 C104.706265,57.5584308 105.091017,57.0548719 105.091017,56.0683918 L105.091017,48.1394032 L105.095154,48.1394032 Z" id="Shape" fill="#1C1C1C"></path>
                <path d="M110.763002,55.2882883 C110.845745,56.7164143 111.288416,57.4015846 112.21513,57.4015846 C112.583314,57.4213862 112.942321,57.2826425 113.201059,57.0205568 C113.459796,56.7584712 113.593399,56.3982326 113.567967,56.031244 C113.567967,54.8425149 112.740544,54.1201968 111.590426,52.9521053 C109.997636,51.3630056 108.868203,50.1949141 108.868203,48.3210146 C108.836985,47.3949201 109.18086,46.4952954 109.822246,45.8251092 C110.463632,45.154923 111.348491,44.7706381 112.277187,44.7589547 C114.093381,44.7589547 115.404846,46.0673823 115.566194,48.2797393 L113.427305,48.5810491 C113.344563,47.3427896 113.013593,46.810338 112.21513,46.810338 C111.528369,46.810338 111.044326,47.3138969 111.044326,48.1187656 C111.044326,49.4065555 111.991726,50.2733372 113.245272,51.4785764 C114.759456,52.9479778 115.706856,54.012881 115.706856,55.9858412 C115.706856,58.0784998 114.254728,59.5272634 112.297872,59.5272634 C110.158983,59.5272634 108.768913,58.0991374 108.665485,55.6019807 L110.763002,55.2882883 Z" id="Path" fill="#1C1C1C"></path>
                <polygon id="Path" fill="#1C1C1C" points="117.109338 45.0024791 122.839243 45.0024791 122.839243 47.066245 119.310284 47.066245 119.310284 50.7810236 121.862884 50.7810236 121.862884 52.8447895 119.318558 52.8447895 119.318558 57.0920197 122.847518 57.0920197 122.847518 59.2259536 117.109338 59.2259536"></polygon>
                <path d="M126.508865,59.213571 L124.30792,59.213571 L124.30792,45.0024791 L127.53487,45.0024791 C129.913712,45.0024791 130.964539,46.1912082 130.964539,49.1093732 C130.964539,50.8016612 130.600473,51.8872021 129.570331,52.6136477 L131.183806,59.2176985 L128.895981,59.2176985 L127.543144,53.2410325 L126.492317,53.2410325 L126.492317,59.2176985 L126.508865,59.213571 Z M126.508865,51.1813942 L127.37766,51.1813942 C128.445035,51.1813942 128.730496,50.5994122 128.730496,49.0268226 C128.730496,47.454233 128.36643,47.0538624 127.299054,47.0538624 L126.513002,47.0538624 L126.513002,51.1813942 L126.508865,51.1813942 Z" id="Shape" fill="#1C1C1C"></path>
                <path d="M133.86052,45.0024791 L134.828605,53.4143889 C134.918854,54.1553694 134.96582,54.9009604 134.969267,55.6473836 L134.969267,55.9280557 C135.052009,54.4586544 135.089243,53.5340873 135.1513,53.1295892 L136.239362,44.9983515 L138.117612,44.9983515 L139.288416,53.4102613 C139.393218,54.245306 139.440217,55.0865637 139.429078,55.9280557 C139.491135,54.7393266 139.528369,53.8147594 139.611111,53.1295892 L140.517139,44.9983515 L142.585697,44.9983515 L140.368203,59.2094435 L138.531324,59.2094435 L137.319149,50.9543799 C137.215298,50.1192497 137.168303,49.2780571 137.178487,48.4365855 C137.095745,49.9844099 137.037825,50.9131046 136.996454,51.2350521 L135.82565,59.205316 L133.988771,59.205316 L131.750591,44.994224 L133.86052,44.994224 L133.86052,45.0024791 Z" id="Path" fill="#1C1C1C"></path>
                <path d="M147.02896,44.6970417 C149.027187,44.6970417 150.338652,46.0467446 150.338652,48.3416523 L150.338652,55.6267459 C150.338652,58.1445403 149.097518,59.5107533 146.950355,59.5107533 C144.803191,59.5107533 143.582732,58.1610504 143.582732,55.5648329 L143.582732,48.2838668 C143.578605,46.0673823 144.8487,44.6970417 147.02896,44.6970417 Z M148.079787,48.1394032 C148.079787,47.1529231 147.695035,46.6700019 146.950355,46.6700019 C146.205674,46.6700019 145.820922,47.1529231 145.820922,48.1394032 L145.820922,56.0683918 C145.820922,57.0548719 146.205674,57.5584308 146.950355,57.5584308 C147.695035,57.5584308 148.079787,57.0548719 148.079787,56.0683918 L148.079787,48.1394032 L148.079787,48.1394032 Z" id="Shape" fill="#1C1C1C"></path>
                <path d="M154.194444,59.213571 L151.993499,59.213571 L151.993499,45.0024791 L155.220449,45.0024791 C157.599291,45.0024791 158.650118,46.1912082 158.650118,49.1093732 C158.650118,50.8016612 158.286052,51.8872021 157.260047,52.6136477 L158.873522,59.2176985 L156.593972,59.2176985 L155.241135,53.2410325 L154.190307,53.2410325 L154.190307,59.2176985 L154.194444,59.213571 Z M154.194444,51.1813942 L155.063239,51.1813942 C156.130615,51.1813942 156.416076,50.5994122 156.416076,49.0268226 C156.416076,47.454233 156.052009,47.0538624 154.984634,47.0538624 L154.198582,47.0538624 L154.198582,51.1813942 L154.194444,51.1813942 Z" id="Shape" fill="#1C1C1C"></path>
                <path d="M160.288416,45.0024791 L162.489362,45.0024791 L162.489362,50.9997828 C162.57206,50.6860362 162.672898,50.3773305 162.791371,50.0752156 L164.971631,45.0024791 L167.151891,45.0024791 L164.710993,49.8523289 L167.433215,59.213571 L165.153664,59.213571 L163.296099,52.0688135 L162.468676,53.6785509 L162.468676,59.213571 L160.26773,59.213571 L160.26773,45.0024791 L160.288416,45.0024791 Z" id="Path" fill="#1C1C1C"></path>
                <path d="M170.035461,55.2882883 C170.118203,56.7164143 170.560875,57.4015846 171.487589,57.4015846 C171.855773,57.4213862 172.214779,57.2826425 172.473517,57.0205568 C172.732255,56.7584712 172.865858,56.3982326 172.840426,56.031244 C172.840426,54.8425149 172.013002,54.1201968 170.862884,52.9521053 C169.270095,51.3630056 168.140662,50.1949141 168.140662,48.3210146 C168.109444,47.3949201 168.453319,46.4952954 169.094705,45.8251092 C169.73609,45.154923 170.620949,44.7706381 171.549645,44.7589547 C173.365839,44.7589547 174.677305,46.0673823 174.838652,48.2797393 L172.699764,48.5810491 C172.617021,47.3427896 172.286052,46.810338 171.487589,46.810338 C170.800827,46.810338 170.316785,47.3138969 170.316785,48.1187656 C170.316785,49.4065555 171.264184,50.2733372 172.51773,51.4785764 C174.031915,52.9479778 174.979314,54.012881 174.979314,55.9858412 C174.979314,58.0784998 173.527187,59.5272634 171.570331,59.5272634 C169.431442,59.5272634 168.041371,58.0991374 167.937943,55.6019807 L170.035461,55.2882883 Z" id="Path" fill="#1C1C1C"></path>
                <polygon id="Path" fill="#1C1C1C" points="64.5390071 35.4554981 67.8486998 35.4554981 67.8486998 36.4543607 66.7275414 36.4543607 66.7275414 42.3732413 65.6560284 42.3732413 65.6560284 36.4543607 64.5472813 36.4543607 64.5472813 35.4554981"></polygon>
                <polygon id="Path" fill="#1C1C1C" points="69.3835697 35.4554981 69.3835697 38.2787298 70.4550827 38.2787298 70.4550827 35.4554981 71.5265957 35.4554981 71.5265957 42.3732413 70.4550827 42.3732413 70.4550827 39.2775925 69.3835697 39.2775925 69.3835697 42.3732413 68.3244681 42.3732413 68.3244681 35.4554981"></polygon>
                <polygon id="Path" fill="#1C1C1C" points="72.6312057 35.4554981 75.4196217 35.4554981 75.4196217 36.4543607 73.7027187 36.4543607 73.7027187 38.2663472 74.9438534 38.2663472 74.9438534 39.2652099 73.7027187 39.2652099 73.7027187 41.3289758 75.4196217 41.3289758 75.4196217 42.3691138 72.6312057 42.3691138"></polygon>
                <path d="M64.6589835,69.6892467 L64.6589835,69.4292122 C64.8763029,69.4249583 65.087657,69.357539 65.2671395,69.2352182 C65.3486954,69.0900604 65.3927694,68.9269387 65.3953901,68.760552 L65.4450355,67.4067216 L65.5029551,66.028126 C65.5029551,65.9455754 65.5029551,65.8919174 65.5029551,65.8754073 C65.5233648,65.6669672 65.5022751,65.4565579 65.4408983,65.2562776 C65.2939509,65.1595178 65.1242746,65.1026159 64.9485816,65.0911763 L64.7789598,65.0540285 C64.7789598,64.9921155 64.7789598,64.9384576 64.7789598,64.8930548 L64.7789598,64.7733563 C64.8727344,64.7733563 64.9830575,64.7733563 65.1099291,64.7733563 L66.2269504,64.8105041 L66.3345154,64.8105041 L66.5082742,64.8105041 C66.5589048,64.8734547 66.6032449,64.9411933 66.6406619,65.0127532 C66.7344366,65.1971163 66.85855,65.4722851 67.0130024,65.8382595 L67.0585106,65.9414478 L67.6501182,67.2333653 L67.7121749,67.3654463 L67.8362884,67.6254808 L67.964539,67.8978979 L68.0886525,68.1620599 C68.126654,68.0964968 68.1611775,68.0289874 68.1920804,67.9598109 C68.2941292,67.7259174 68.39342,67.5112858 68.4899527,67.3159159 C68.6581954,66.9719549 68.8857368,66.4436309 69.1725768,65.7309437 C69.2194641,65.6181245 69.2953113,65.446144 69.4001182,65.2150022 C69.5049251,64.9838605 69.5628448,64.8627862 69.5738771,64.8517794 C69.6149027,64.8272797 69.6629399,64.8171136 69.7104019,64.8228867 L69.8303783,64.8228867 L70.3061466,64.8228867 C70.5819543,64.8228867 70.7957053,64.8146317 70.9473995,64.7981215 L71.2204492,64.7774839 L71.3114657,64.7774839 C71.3114657,64.8146317 71.3114657,64.8393968 71.3114657,64.8600345 L71.3114657,64.9756054 C71.3114657,65.0003706 71.3114657,65.0333908 71.3114657,65.0787937 C71.1102664,65.1041478 70.9137932,65.1583656 70.7281324,65.2397674 C70.642259,65.2658044 70.5803405,65.3405848 70.570922,65.4296339 L70.570922,65.4874193 L70.6371158,66.6513833 C70.6371158,66.7586991 70.6578014,67.288399 70.6991726,68.240483 C70.6991726,68.452363 70.715721,68.7275318 70.748818,69.0659894 C70.7506433,69.0976076 70.7506433,69.1293044 70.748818,69.1609226 C70.7445997,69.2049148 70.7596892,69.248573 70.7901891,69.280621 C70.8150118,69.2971312 71.0439322,69.3714267 71.4769504,69.5035078 C71.4769504,69.5447831 71.4769504,69.5736758 71.4769504,69.5943135 C71.4769504,69.6149511 71.4769504,69.7016293 71.4769504,69.7552872 C71.4079984,69.7552872 71.2356186,69.7401529 70.9598109,69.7098844 C70.7015233,69.6812203 70.4419088,69.6660653 70.1820331,69.6644815 C69.8124507,69.6644815 69.4539007,69.6796158 69.106383,69.7098844 L68.9739953,69.7098844 L68.9739953,69.4457223 C69.1080688,69.397529 69.2466749,69.3629578 69.3877069,69.342534 C69.4752081,69.3384977 69.557954,69.3016432 69.6193853,69.2393457 C69.6665668,69.1071738 69.683529,68.9661489 69.6690307,68.8265925 C69.6690307,68.7440419 69.6690307,68.6697463 69.6690307,68.6037058 C69.6690307,68.328537 69.6607565,67.958435 69.644208,67.4933998 L69.5780142,66.1478244 C69.5780142,65.957958 69.56974,65.8203736 69.5531915,65.7350712 L68.6016548,67.914408 L68.498227,68.1372947 L68.3782506,68.3932017 C68.1824271,68.8637403 68.0445232,69.2228356 67.964539,69.4704875 C67.9452325,69.5337763 67.9148936,69.616327 67.8735225,69.7181394 L67.5797872,69.7181394 L67.3729314,69.1361574 C67.3122537,68.9848146 67.2074468,68.7536728 67.0585106,68.4427321 C66.9730102,68.2638724 66.9054374,68.1180329 66.855792,68.0052137 L66.8392435,67.914408 L66.7937352,67.8194748 C66.7954893,67.807154 66.7954893,67.7946478 66.7937352,67.782327 L66.2228132,66.5440675 L65.8752955,65.8011118 L65.8297872,67.6254808 L65.8049645,68.7935723 C65.7910543,68.9394956 65.8291404,69.0856414 65.9125296,69.2063255 C66.0458813,69.3182268 66.2076951,69.3910886 66.3800236,69.4168296 L66.5620567,69.4622324 L66.5620567,69.7387771 C66.4131206,69.7387771 66.2545311,69.7277703 66.0862884,69.7057568 C65.8621818,69.6841437 65.6370773,69.6744991 65.4119385,69.6768641 L64.6589835,69.6892467 Z" id="Path" fill="#1C1C1C"></path>
                <path d="M73.2600473,64.7774839 C73.4062254,64.7774839 73.5317179,64.7884906 73.6365248,64.8105041 C73.8683617,64.8402021 74.1019679,64.8539929 74.3356974,64.8517794 L75.0431442,64.8270142 C75.6113081,64.8050007 76.1243105,64.793994 76.5821513,64.793994 L77.2730496,64.793994 C77.5028929,64.8000728 77.7321937,64.8193666 77.9598109,64.8517794 C78.0086087,64.909201 78.0337448,64.9829595 78.0301418,65.058156 L78.0301418,65.8423871 L78.0301418,65.9992333 C78.0301418,65.9992333 78.0301418,66.0363811 78.0301418,66.0694013 L77.8729314,66.0694013 L77.7446809,66.0694013 C77.7198582,66.0198709 77.6908983,65.9455754 77.6536643,65.8465146 L77.500591,65.5740975 C77.4338535,65.447669 77.3518829,65.3298493 77.2565012,65.2232573 C77.1765995,65.2038629 77.0946435,65.1941619 77.0124113,65.1943646 L76.7683215,65.1489617 C76.5311269,65.1296999 76.2760047,65.120069 76.0029551,65.120069 C75.7299054,65.120069 75.4540977,65.120069 75.1755319,65.120069 C75.1755319,65.1833578 75.1755319,65.4337614 75.1755319,65.8712798 L75.1755319,66.9898409 L75.3410165,66.9898409 C75.7960993,66.9898409 76.1215524,66.9815858 76.3173759,66.9650757 C76.4410631,66.9639896 76.5633402,66.9387495 76.677305,66.8907801 C76.7328571,66.8479344 76.7757456,66.7908822 76.8014184,66.7256789 C76.8559694,66.541164 76.9001672,66.3537585 76.9338061,66.1643345 L77.2068558,66.1643345 C77.2068558,66.389973 77.2068558,66.5619534 77.2068558,66.680276 C77.2068558,66.9554448 77.2068558,67.1274253 77.2068558,67.1962175 C77.2068558,67.2705131 77.2068558,67.332426 77.2068558,67.3737014 C77.2068558,67.4149767 77.2068558,67.5511852 77.2068558,67.7039039 C77.2068558,67.8566226 77.2068558,67.9680659 77.2068558,68.0423615 L77.2068558,68.1249121 L76.9379433,68.1249121 C76.9379433,68.0836368 76.9186367,67.9997103 76.8800236,67.8731327 C76.8570488,67.7199023 76.8110221,67.5710098 76.7434988,67.4314868 C76.7058023,67.3806395 76.6517756,67.3442196 76.5904255,67.3282985 C76.402688,67.3023912 76.2129295,67.2940999 76.0236407,67.3035333 C75.6375099,67.3035333 75.3479117,67.3131642 75.1548463,67.332426 L75.1548463,67.4603795 C75.1548463,67.7630652 75.1548463,68.0148446 75.1548463,68.2157178 L75.1548463,69.0412242 C75.1463242,69.1219927 75.1870543,69.2000133 75.2582742,69.2393457 C75.5721813,69.3150968 75.8960073,69.3415556 76.2180851,69.3177688 C76.5206348,69.3230989 76.8229126,69.2968146 77.1199764,69.2393457 C77.2922588,69.2001777 77.449125,69.1111577 77.570922,68.9834388 C77.7586382,68.7778312 77.8997443,68.5342832 77.9846336,68.2693758 L78.179078,68.2693758 L78.3031915,68.2693758 L78.3031915,68.4303495 L78.2825059,68.5459204 L78.1666667,69.2764935 L78.1004728,69.7098844 L77.6867612,69.7098844 C77.5433412,69.7098844 77.1627266,69.6975018 76.5449173,69.6727366 C76.1091411,69.6562264 75.5851064,69.6479714 74.9728132,69.6479714 C74.6666667,69.6479714 74.2915682,69.660354 73.8475177,69.6851192 L73.6861702,69.6851192 L73.2228132,69.6851192 L73.2228132,69.4209571 C73.3184165,69.4013454 73.4151282,69.3875614 73.5124113,69.3796818 C73.7010909,69.3667204 73.8866612,69.3249594 74.0626478,69.2558559 C74.0928439,69.16687 74.1068546,69.0732158 74.1040189,68.9793112 C74.1040189,68.9352842 74.1040189,68.8609886 74.1040189,68.7564245 L74.1040189,68.6367261 L74.1040189,67.200345 L74.1040189,66.7875918 L74.1040189,66.1767171 L74.1040189,65.763964 L74.070922,65.2934253 C74.0721708,65.2686758 74.0721708,65.2438793 74.070922,65.2191298 C74.0398585,65.188176 73.9988295,65.169171 73.9550827,65.1654719 L73.8309693,65.1489617 C73.6948189,65.1195251 73.5564264,65.1015758 73.4172577,65.0953038 L73.2476359,65.0953038 L73.2600473,64.7774839 Z" id="Path" fill="#1C1C1C"></path>
                <path d="M80.0780142,69.3920644 L80.3138298,69.3466616 C80.4813065,69.3326869 80.6423321,69.2758187 80.7813239,69.1815603 C80.836512,69.1106349 80.8670136,69.0236895 80.8682033,68.9339084 C80.8682033,68.9036398 80.8764775,68.5170277 80.893026,67.7740719 L80.893026,66.8495048 L80.893026,65.5534598 L80.893026,65.4007412 C80.8966919,65.344652 80.8772683,65.2894975 80.8392435,65.2480225 C80.7933801,65.2245382 80.7413258,65.2158825 80.6903073,65.2232573 C80.6138872,65.2249636 80.5377573,65.2332494 80.462766,65.2480225 C80.3615998,65.2515007 80.2607417,65.2611497 80.1607565,65.2769152 L80.0862884,65.2769152 L80.0862884,64.9425851 C80.2978767,64.8808547 80.5135327,64.8339616 80.7316785,64.8022491 C81.2972376,64.7184811 81.8685909,64.679835 82.4403073,64.6866782 C82.8562359,64.6737486 83.2723499,64.7055768 83.6814421,64.7816114 C84.0316209,64.8594328 84.3614639,65.009909 84.6495272,65.2232573 C84.9657681,65.4645017 85.222009,65.7752331 85.3983452,66.1313143 C85.56578,66.4817747 85.6506857,66.8657886 85.6465721,67.2540029 C85.6600669,67.7154805 85.5439975,68.171534 85.3114657,68.5706856 C85.0769733,68.9463333 84.743515,69.2504624 84.3475177,69.4498498 C83.971199,69.6242714 83.558084,69.7050033 83.143617,69.6851192 L82.3617021,69.6562264 L82.1341608,69.6562264 L81.8238771,69.6562264 L81.7328605,69.6562264 L81.4101655,69.6562264 L80.9964539,69.6562264 L80.607565,69.6809916 L80.28487,69.6809916 L80.1028369,69.6809916 C80.0862884,69.6397163 80.0780142,69.5434072 80.0780142,69.3920644 Z M81.9479905,65.1489617 C81.9479905,65.2287607 81.9479905,65.2851703 81.9479905,65.3181905 L81.9479905,65.966213 L81.9479905,66.5275573 C81.9479905,66.7091687 81.9479905,66.8687666 81.9479905,67.006351 L81.9479905,67.3695738 L81.9479905,67.976321 L81.9479905,68.3477989 C81.9188108,68.599308 81.9885103,68.852308 82.142435,69.0536068 C82.3564901,69.2411781 82.6357459,69.3375057 82.9202128,69.3218964 C83.1090853,69.3318631 83.2982241,69.3081008 83.4787234,69.2517283 C83.7030656,69.1712201 83.9055922,69.0398121 84.070331,68.8678679 C84.2351914,68.6725431 84.3501724,68.4402815 84.4054374,68.1909527 C84.482809,67.8944538 84.5217398,67.5892778 84.5212766,67.2828957 C84.5346172,66.8566282 84.4496937,66.4329947 84.2730496,66.0446361 C84.12614,65.7395902 83.891341,65.4852151 83.5986998,65.314063 C83.0934185,65.0387901 82.4979868,64.979236 81.9479905,65.1489617 L81.9479905,65.1489617 Z" id="Shape" fill="#1C1C1C"></path>
                <path d="M87.4007092,69.7098844 L87.4007092,69.4374673 L87.6530733,69.3714267 C87.7802557,69.3447202 87.9038418,69.3031584 88.0212766,69.2476008 C88.0724753,69.1467656 88.0967013,69.0344465 88.0916076,68.9215258 L88.0916076,68.4509872 L88.0916076,67.5842055 L88.0916076,67.3778289 C88.1109141,66.87427 88.1205674,66.6156114 88.1205674,66.6018529 L88.1205674,66.0941665 L88.1205674,65.8877899 L88.1205674,65.4543991 L88.1205674,65.2892978 C88.1152694,65.2488412 88.1069724,65.208832 88.0957447,65.1695994 C87.9327029,65.1100509 87.7605022,65.0793221 87.5868794,65.0787937 L87.4544917,65.0787937 L87.4544917,64.7444636 L88.5466903,64.7898665 L88.7990544,64.7898665 C88.9479905,64.7898665 89.1879433,64.7802356 89.5189125,64.7609737 L89.8705674,64.7362085 C89.8705674,64.7857389 89.8705674,64.8270142 89.8705674,64.855907 C89.8705674,64.8847997 89.8705674,64.9549677 89.8705674,65.0251358 C89.7685185,65.0609077 89.6526793,65.093928 89.5230496,65.1241965 C89.4134239,65.150122 89.3056262,65.1832137 89.2003546,65.2232573 C89.1819983,65.3170462 89.1736774,65.4125147 89.1755319,65.508057 C89.1708223,65.5974251 89.1708223,65.6869784 89.1755319,65.7763466 C89.1755319,66.2056099 89.1755319,66.5358124 89.1755319,66.7669542 L89.1755319,67.7740719 L89.1755319,68.2858859 L89.1755319,69.0494793 L89.1755319,69.1939429 C89.178685,69.2240571 89.1870854,69.2533905 89.2003546,69.280621 C89.3368827,69.3114696 89.4749902,69.3348935 89.6140662,69.3507891 L89.8457447,69.3796818 C89.8497792,69.4429066 89.8497792,69.5063235 89.8457447,69.5695483 C89.8457447,69.5970652 89.8457447,69.6397163 89.8457447,69.6975018 L89.7712766,69.6975018 L89.6306147,69.6975018 L89.5313239,69.6975018 L89.0224586,69.6438438 L88.3481087,69.6438438 C88.212963,69.6438438 88.0171395,69.6562264 87.7606383,69.6809916 L87.4007092,69.7098844 Z" id="Path" fill="#1C1C1C"></path>
                <path d="M91.5419622,69.6892467 L91.5419622,69.4292122 C91.6263961,69.405509 91.7120131,69.3862209 91.7984634,69.3714267 C91.9217284,69.3557512 92.0417769,69.3209342 92.1542553,69.2682385 C92.2196023,69.2048159 92.2716383,69.1290474 92.3073286,69.0453517 L93.0768322,67.0311162 L93.9828605,64.6660405 L94.3965721,64.6660405 L94.429669,64.7362085 L95.0916076,66.3046706 C95.2405437,66.6376249 95.3784476,66.9609482 95.5053191,67.2746406 C95.6321907,67.588333 95.7356186,67.84424 95.8156028,68.0423615 C95.8652482,68.1606841 95.9355792,68.3395438 96.0265957,68.5789406 C96.0882702,68.7448882 96.1586995,68.9074649 96.2375887,69.0659894 C96.2642639,69.1345629 96.3035517,69.1975576 96.3534279,69.2517283 C96.4196189,69.2965432 96.4969279,69.3222532 96.5768322,69.3260239 C96.6916456,69.3412445 96.8041752,69.3703513 96.9119385,69.4127021 C96.9161238,69.4745446 96.9161238,69.5365984 96.9119385,69.598441 C96.9119385,69.598441 96.9119385,69.6438438 96.9119385,69.6809916 C96.7243893,69.6809916 96.5175335,69.6727366 96.2913712,69.6562264 C96.0652088,69.6397163 95.8611111,69.6314612 95.679078,69.6314612 L95.2446809,69.6314612 L94.5951537,69.6644815 L94.4089835,69.6644815 C94.4089835,69.5764275 94.4089835,69.4911252 94.4089835,69.4085745 L94.822695,69.3177688 C94.90048,69.3043362 94.975793,69.27929 95.0460993,69.2434733 C95.0698762,69.2208811 95.0833333,69.1895538 95.0833333,69.1567951 C95.0891991,69.1226479 95.0891991,69.087754 95.0833333,69.0536068 L94.93026,68.6821289 L94.6323877,67.9350457 L93.1761229,67.9350457 C93.1209614,68.0561199 93.0092593,68.3546781 92.8410165,68.8307201 C92.8036488,68.91764 92.7785857,69.0093249 92.7665485,69.1031372 C92.7615388,69.1557268 92.7814316,69.2076336 92.820331,69.2434733 C92.9213556,69.3058824 93.0367306,69.3414095 93.1554374,69.3466616 L93.428487,69.3879369 C93.428487,69.4787426 93.428487,69.5447831 93.428487,69.5778033 C93.4308299,69.6066488 93.4308299,69.6356361 93.428487,69.6644815 C93.2712766,69.6644815 92.8947991,69.642468 92.2990544,69.598441 L92.141844,69.6232062 C91.9640753,69.6526726 91.7842228,69.6678557 91.6040189,69.668609 L91.5336879,69.668609 L91.5419622,69.6892467 Z M93.3374704,67.5470577 L94.3882979,67.5470577 L94.4834515,67.5470577 C94.4062254,67.3214193 94.3069346,67.0586331 94.1855792,66.7586991 C94.0642238,66.4587651 93.964933,66.2289992 93.8877069,66.0694013 L93.3374704,67.5470577 Z" id="Shape" fill="#1C1C1C"></path>
                <path d="M102.476359,64.8600345 C102.509456,64.9370818 102.577029,65.1544651 102.679078,65.5121845 C102.726241,65.6802114 102.751274,65.8536498 102.753546,66.028126 L102.41844,66.028126 C102.221652,65.7297835 101.963594,65.4765439 101.661348,65.2851703 C101.397454,65.1329948 101.097335,65.0545744 100.792553,65.058156 C100.417635,65.0481956 100.06124,65.220593 99.8368794,65.5204396 C99.4804236,66.0289647 99.3069102,66.6428556 99.3445626,67.262258 C99.3315849,67.5713633 99.3594042,67.8808292 99.427305,68.1826976 C99.5012918,68.4426513 99.6187859,68.688259 99.7748227,68.9091432 C99.8836832,69.0532797 100.025538,69.169331 100.188534,69.2476008 C100.409759,69.3617136 100.655212,69.4211653 100.904255,69.4209571 C101.200259,69.4209466 101.489108,69.33017 101.731678,69.1609226 C102.027833,68.9513816 102.281852,68.6881493 102.480496,68.3849466 C102.603626,68.3653169 102.728146,68.3556545 102.852837,68.3560539 C102.841957,68.4573387 102.825382,68.5579338 102.803191,68.6573637 L102.716312,69.140285 L102.683215,69.2558559 L102.629433,69.4333397 C102.434032,69.5697498 102.210815,69.6613665 101.975768,69.7016293 C101.63365,69.7672244 101.285692,69.797652 100.937352,69.792435 C100.638648,69.7943956 100.34055,69.7653466 100.047872,69.7057568 C99.794461,69.657649 99.5519377,69.5639414 99.3321513,69.4292122 C99.0717254,69.2721639 98.8407277,69.0710329 98.6495272,68.8348476 C98.4864454,68.6258618 98.3617827,68.3896913 98.2813239,68.1372947 C98.2000367,67.8696918 98.1595914,67.5914048 98.1613475,67.3117884 C98.1387693,66.61042 98.4101165,65.9313799 98.9101655,65.437889 C99.4206727,64.940868 100.112797,64.6739066 100.82565,64.6990608 C101.122841,64.698861 101.419807,64.7153974 101.71513,64.7485911 C101.971151,64.7681324 102.225505,64.8053695 102.476359,64.8600345 L102.476359,64.8600345 Z" id="Path" fill="#1C1C1C"></path>
                <path d="M104.5987,69.7098844 L104.5987,69.4374673 L104.851064,69.3714267 C104.978246,69.3447202 105.101832,69.3031584 105.219267,69.2476008 C105.270466,69.1467656 105.294692,69.0344465 105.289598,68.9215258 L105.289598,68.4509872 L105.289598,67.5842055 L105.289598,67.3778289 C105.308905,66.87427 105.318558,66.6156114 105.318558,66.6018529 L105.318558,66.0941665 L105.318558,65.8877899 L105.318558,65.4543991 L105.318558,65.2892978 C105.31326,65.2488412 105.304963,65.208832 105.293735,65.1695994 C105.130693,65.1100509 104.958493,65.0793221 104.78487,65.0787937 L104.652482,65.0787937 L104.652482,64.7444636 L105.744681,64.7898665 L105.997045,64.7898665 C106.145981,64.7898665 106.385934,64.7802356 106.716903,64.7609737 L107.068558,64.7362085 C107.068558,64.7857389 107.068558,64.8270142 107.068558,64.855907 C107.068558,64.8847997 107.068558,64.9549677 107.068558,65.0251358 C106.966509,65.0609077 106.85067,65.093928 106.72104,65.1241965 C106.611414,65.150122 106.503617,65.1832137 106.398345,65.2232573 C106.379989,65.3170462 106.371668,65.4125147 106.373522,65.508057 C106.368813,65.5974251 106.368813,65.6869784 106.373522,65.7763466 C106.373522,66.2056099 106.373522,66.5358124 106.373522,66.7669542 L106.373522,67.7740719 L106.373522,68.2858859 L106.373522,69.0494793 L106.373522,69.1939429 C106.376676,69.2240571 106.385076,69.2533905 106.398345,69.280621 C106.534873,69.3114696 106.672981,69.3348935 106.812057,69.3507891 L107.043735,69.3796818 C107.04777,69.4429066 107.04777,69.5063235 107.043735,69.5695483 C107.043735,69.5970652 107.043735,69.6397163 107.043735,69.6975018 L106.969267,69.6975018 L106.828605,69.6975018 L106.729314,69.6975018 L106.220449,69.6438438 L105.546099,69.6438438 C105.410954,69.6438438 105.21513,69.6562264 104.958629,69.6809916 L104.5987,69.7098844 Z" id="Path" fill="#1C1C1C"></path>
                <path d="M109.083333,64.5669797 L109.319149,64.5669797 L109.356383,64.6288927 C109.402542,64.7158074 109.458029,64.7974613 109.521868,64.8724171 C109.554965,64.8724171 109.728723,64.8724171 110.043144,64.8724171 L110.564421,64.8724171 L110.638889,64.8724171 L113.141844,64.8724171 L113.365248,64.8435244 C113.416884,64.7921514 113.453992,64.7280744 113.472813,64.6577854 L113.514184,64.5628522 L113.795508,64.5628522 C113.795508,64.7389602 113.795508,65.0031223 113.795508,65.3553383 L113.795508,65.8877899 C113.801457,65.945423 113.801457,66.0035132 113.795508,66.0611463 C113.706867,66.0910943 113.615367,66.1118417 113.522459,66.1230592 C113.438396,65.9922425 113.366391,65.8540929 113.307329,65.7103061 C113.268276,65.6010553 113.218383,65.4959695 113.158392,65.3966136 C113.129968,65.3643588 113.092498,65.3413536 113.050827,65.3305731 C112.99015,65.3305731 112.714342,65.3305731 112.223404,65.3305731 L111.954492,65.3305731 C111.949528,65.4116724 111.949528,65.4929982 111.954492,65.5740975 L111.954492,67.2044726 L111.954492,68.4097118 L111.954492,68.8637403 C111.947182,69.0028749 111.962551,69.142271 112,69.2764935 C112.073627,69.3018889 112.150003,69.3185143 112.227541,69.3260239 L112.513002,69.3879369 C112.581978,69.4036893 112.649727,69.4243806 112.715721,69.4498498 C112.715721,69.5406555 112.715721,69.598441 112.715721,69.6190787 C112.718391,69.6520452 112.718391,69.6851729 112.715721,69.7181394 L112.579196,69.7181394 C112.363723,69.7189943 112.148337,69.7093519 111.933806,69.6892467 C111.751773,69.6699849 111.419425,69.660354 110.936761,69.660354 C110.859535,69.660354 110.636131,69.6754883 110.266548,69.7057568 L109.985225,69.7057568 C109.985225,69.668609 109.985225,69.6397163 109.985225,69.6190787 L109.985225,69.4993802 C110.069324,69.4095719 110.181778,69.3512898 110.303783,69.334279 C110.492522,69.294913 110.676849,69.2368394 110.854019,69.1609226 C110.882097,69.1014235 110.897588,69.0367915 110.899527,68.9710562 C110.916076,68.6656188 110.92435,68.1813217 110.92435,67.518165 L110.92435,66.0776564 C110.930161,65.8379812 110.921873,65.5981723 110.899527,65.3594658 C110.895459,65.3186596 110.861983,65.2870193 110.820922,65.2851703 C110.740938,65.2851703 110.484437,65.2851703 110.051418,65.2851703 C109.888225,65.2730731 109.724365,65.2970314 109.571513,65.3553383 C109.381123,65.5002957 109.214957,65.6744353 109.079196,65.8712798 C109.047962,65.926511 108.998127,65.9689183 108.938534,65.9909782 C108.856698,65.9534752 108.781304,65.9033286 108.71513,65.8423871 C108.84707,65.5201834 108.95628,65.1891745 109.041962,64.8517794 C109.039204,64.7114434 109.052994,64.6165101 109.083333,64.5669797 Z" id="Path" fill="#1C1C1C"></path>
                <path d="M115.458629,64.8063766 C115.61571,64.7796554 115.775227,64.7699681 115.934397,64.7774839 L115.971631,64.7774839 L116.104019,64.7774839 L116.141253,64.7774839 L116.455674,64.8022491 C116.770095,64.8242626 117.02108,64.8352693 117.208629,64.8352693 C117.409319,64.8357601 117.609788,64.8219667 117.808511,64.793994 L117.870567,64.793994 L117.899527,64.793994 C117.903543,64.8185972 117.903543,64.8436864 117.899527,64.8682896 L117.899527,65.0664111 C117.831331,65.0918038 117.760592,65.1097935 117.688534,65.120069 L117.514775,65.1489617 L117.258274,65.190237 L117.233452,65.190237 L117.233452,65.2397674 C117.389046,65.5286664 117.567509,65.804712 117.767139,66.0652738 C117.838849,66.1863481 117.910559,66.3005431 117.98227,66.4078589 C118.001576,66.4353758 118.074665,66.5536984 118.201537,66.7628267 L118.242908,66.8329947 L118.313239,66.936183 L118.395981,67.0600089 C118.434778,67.1245482 118.477613,67.1865841 118.524232,67.2457479 L118.937943,66.6885311 C119.067573,66.5206781 119.237195,66.2771537 119.446809,65.957958 L119.446809,65.957958 L119.769504,65.384231 C119.808377,65.336645 119.834054,65.2797157 119.843972,65.2191298 C119.846241,65.1971745 119.846241,65.1750446 119.843972,65.1530893 C119.815356,65.1321894 119.783087,65.1167923 119.748818,65.1076864 L119.58747,65.1076864 L119.434397,65.0829212 L119.314421,65.058156 C119.314421,65.0251358 119.306147,64.9315784 119.289598,64.7774839 L120.071513,64.8187592 L120.166667,64.8187592 L120.414894,64.8187592 C120.497636,64.8187592 120.603822,64.8091283 120.733452,64.7898665 L120.845154,64.7898665 L120.845154,65.0746662 L120.795508,65.0746662 C120.640968,65.0896909 120.491441,65.1375413 120.356974,65.2150022 C120.168893,65.3956334 120.012296,65.6062705 119.893617,65.8382595 L119.397163,66.5812153 C119.099291,66.9857134 118.907604,67.2608822 118.822104,67.4067216 C118.796496,67.4477222 118.776987,67.4922126 118.764184,67.5388026 L118.764184,68.0795093 C118.7602,68.1482441 118.7602,68.2171511 118.764184,68.2858859 L118.764184,69.2599834 C118.772476,69.2783094 118.787187,69.2929861 118.805556,69.3012587 C118.886117,69.3184125 118.967622,69.3308166 119.049645,69.3384065 C119.189619,69.3446417 119.328421,69.3667987 119.463357,69.404447 C119.48515,69.422613 119.496082,69.4506601 119.492317,69.4787426 C119.494294,69.508979 119.494294,69.5393118 119.492317,69.5695483 C119.492317,69.5943135 119.492317,69.6273337 119.492317,69.6768641 L119.053783,69.6768641 L118.640071,69.6438438 L118.358747,69.6438438 L117.945035,69.6438438 L117.626478,69.6438438 C117.568718,69.6377596 117.510478,69.6377596 117.452719,69.6438438 C117.358386,69.6603152 117.262984,69.6699712 117.167258,69.6727366 L116.898345,69.6727366 C116.898345,69.6190787 116.898345,69.5778033 116.898345,69.5489106 C116.898345,69.5200179 116.898345,69.4787426 116.898345,69.4250847 L117.601655,69.280621 L117.688534,69.2434733 C117.688534,69.1279024 117.688534,69.0536068 117.688534,69.0247141 C117.688534,68.6367261 117.688534,68.3725641 117.688534,68.232228 C117.688534,68.0918919 117.688534,68.0093413 117.688534,67.9845761 L117.688534,67.8978979 C117.668651,67.6905992 117.579813,67.4958994 117.43617,67.3448086 C117.36446,67.2567546 117.320331,67.1989692 117.303783,67.1714523 L116.554965,66.0363811 L116.20331,65.4709092 L115.967494,65.1572168 C115.929016,65.121567 115.884087,65.0935514 115.835106,65.0746662 C115.810284,65.0746662 115.694444,65.0485251 115.487589,64.9962431 C115.482672,64.9758969 115.482672,64.9546763 115.487589,64.9343301 C115.486602,64.9150808 115.486602,64.8957939 115.487589,64.8765446 C115.454492,64.8889272 115.454492,64.8517794 115.458629,64.8063766 Z" id="Path" fill="#1C1C1C"></path>
                <path d="M124.535461,64.8435244 C124.539749,64.876406 124.539749,64.9097035 124.535461,64.9425851 C124.538163,64.9658968 124.538163,64.9894415 124.535461,65.0127532 C124.482946,65.0277885 124.42873,65.0361101 124.374113,65.0375184 L124.183806,65.0375184 C124.086512,65.0332773 123.990117,65.0576792 123.906619,65.1076864 C123.864697,65.1317295 123.834714,65.1721138 123.823877,65.2191298 L123.786643,65.6525206 L123.786643,67.5388026 C123.772387,67.9706629 123.79592,68.4029407 123.856974,68.8307201 C123.89413,68.9845037 123.969543,69.1264615 124.076241,69.2434733 C124.205075,69.3698714 124.362621,69.4633305 124.535461,69.5158904 C124.726606,69.5847379 124.927997,69.621016 125.131206,69.6232062 C125.472324,69.6417642 125.812904,69.5780536 126.124113,69.4374673 C126.342679,69.3255895 126.517441,69.1439681 126.620567,68.9215258 C126.737095,68.601967 126.787752,68.2622248 126.769504,67.9226631 C126.769504,67.9226631 126.769504,67.8070922 126.769504,67.6172257 L126.769504,67.5057824 C126.769504,67.4645071 126.769504,67.3847081 126.769504,67.2663855 C126.769504,67.148063 126.769504,67.0792708 126.769504,67.0600089 L126.711584,65.966213 C126.71102,65.7473894 126.690247,65.5290832 126.649527,65.314063 C126.630882,65.2552491 126.594824,65.203446 126.546099,65.1654719 C126.370877,65.0670567 126.178562,65.0026331 125.979314,64.9756054 C125.965906,64.9397841 125.957552,64.9022776 125.954492,64.864162 C126.05234,64.8592048 126.150378,64.8592048 126.248227,64.864162 L126.570922,64.864162 L126.843972,64.864162 L127.447991,64.864162 L127.567967,64.864162 L127.567967,65.0003706 C127.372125,65.0071729 127.180122,65.0564711 127.005319,65.1448342 C126.936288,65.2293382 126.903568,65.3376568 126.914303,65.446144 C126.914303,65.525943 126.914303,65.6979235 126.914303,65.9620855 L126.939125,66.7504441 L126.939125,67.0641365 L126.939125,67.4768897 C126.947174,67.8172559 126.933356,68.1577869 126.897754,68.49639 C126.870528,68.7035112 126.811941,68.9053081 126.723995,69.0948821 C126.645399,69.2538926 126.534024,69.3945469 126.397163,69.5076353 C126.227291,69.6406913 126.033513,69.7401578 125.826241,69.8006901 C125.599264,69.8755043 125.361969,69.9144977 125.122931,69.9162609 C124.858734,69.9277825 124.594208,69.9027802 124.336879,69.8419654 C124.083391,69.7729843 123.845875,69.6552022 123.637707,69.4952527 C123.489127,69.3853602 123.366307,69.2445148 123.277778,69.0824995 C123.175665,68.8197584 123.130544,68.5384043 123.14539,68.2569932 L123.14539,67.9928311 L123.14539,66.9238004 L123.14539,66.0611463 L123.14539,65.4832918 C123.154352,65.3763312 123.13284,65.2690208 123.083333,65.1737269 C123.055754,65.1327496 123.008625,65.1092399 122.95922,65.1118139 L122.735816,65.1118139 C122.626723,65.1229085 122.516653,65.1043684 122.417258,65.058156 C122.413936,65.0376514 122.413936,65.0167476 122.417258,64.9962431 C122.416601,64.9754553 122.425799,64.9555736 122.44208,64.9425851 C122.472509,64.9220311 122.508806,64.9118916 122.545508,64.9136924 L123.51773,64.9136924 L124.535461,64.8435244 Z" id="Path" fill="#1C1C1C"></path>
                <path d="M129.392435,69.6892467 C129.402823,69.6660375 129.42498,69.650248 129.450355,69.6479714 C129.659294,69.6369097 129.864881,69.5908646 130.058511,69.5117628 C130.11832,69.4488101 130.147104,69.362658 130.137116,69.2764935 L130.137116,68.1950802 L130.137116,67.8855153 L130.112293,66.8288672 L130.112293,66.1148042 C130.112293,65.7130577 130.104019,65.4447682 130.08747,65.3099355 C130.081637,65.2548599 130.064753,65.2015189 130.037825,65.1530893 C130.002606,65.1295904 129.963331,65.1127975 129.921986,65.1035589 C129.811663,65.0870488 129.673759,65.0732903 129.508274,65.0622836 C129.476216,65.0429306 129.456019,65.0088303 129.454492,64.9714779 C129.451251,64.9523517 129.451251,64.9328186 129.454492,64.9136924 C129.595154,64.9136924 129.843381,64.9136924 130.199173,64.9136924 L130.592199,64.9136924 L131.084515,64.8806722 C131.167258,64.8806722 131.266548,64.8806722 131.382388,64.8806722 C131.405017,64.8896101 131.420904,64.9102162 131.423759,64.9343301 C131.426026,64.9507627 131.426026,64.9674278 131.423759,64.9838605 C131.368044,65.0049005 131.309464,65.0174244 131.25,65.0210082 C131.088542,65.0228105 130.931382,65.0731577 130.799054,65.1654719 C130.737533,65.2485726 130.709485,65.3516694 130.720449,65.4543991 L130.720449,67.9309182 L130.745272,68.9091432 C130.740076,69.0801333 130.748376,69.2512662 130.770095,69.4209571 C130.782167,69.4517755 130.803945,69.4778485 130.832151,69.4952527 C130.96075,69.5602 131.101843,69.5967992 131.245863,69.6025685 L131.378251,69.6273337 C131.392256,69.652801 131.400714,69.6809312 131.403073,69.7098844 C131.400853,69.740539 131.383895,69.7682244 131.357565,69.7841799 L131.233452,69.7841799 L130.865248,69.7594147 C130.672183,69.7429046 130.534279,69.7346495 130.451537,69.7346495 C130.342199,69.7364846 130.233066,69.744754 130.124704,69.7594147 C129.935061,69.7789965 129.744414,69.7872663 129.553783,69.7841799 L129.408983,69.7841799 L129.392435,69.6892467 Z M130.865248,67.2952783 C130.912973,67.2550368 130.9642,67.2191226 131.018322,67.1879624 C131.161742,67.1026601 131.40721,66.9306796 131.754728,66.672021 L132.801418,65.8217494 C133.018389,65.6506145 133.221718,65.4629361 133.409574,65.2604051 C133.427248,65.2252184 133.439786,65.1876906 133.446809,65.1489617 C133.399261,65.1159762 133.345936,65.0921758 133.289598,65.0787937 C133.198353,65.0596936 133.105599,65.0486442 133.012411,65.0457734 C132.934924,65.0473935 132.857798,65.034802 132.78487,65.0086256 C132.762566,64.9957969 132.748486,64.9723842 132.747636,64.9467127 C132.745593,64.9221031 132.7547,64.8978736 132.772459,64.8806722 C132.815026,64.8559918 132.863989,64.8444979 132.913121,64.8476519 C132.997709,64.8464961 133.082214,64.8534067 133.165485,64.8682896 C133.326117,64.8868694 133.487892,64.8937668 133.649527,64.8889272 L133.781915,64.8889272 L134.37766,64.8600345 L134.518322,64.8600345 L134.654846,64.8600345 C134.660992,64.9079939 134.660992,64.9565387 134.654846,65.0044981 C134.447801,65.023219 134.243681,65.0661651 134.04669,65.1324516 C133.891532,65.207436 133.740954,65.2915092 133.595745,65.384231 C133.431357,65.4832567 133.275043,65.5950457 133.128251,65.7185611 L132.143617,66.5440675 L131.547872,67.0228612 C131.55992,67.0431653 131.575304,67.0613041 131.593381,67.0765191 L131.70922,67.1838349 C131.985028,67.4314868 132.346336,67.7369242 132.793144,68.100147 C133.239953,68.4633698 133.595745,68.7660554 133.86052,69.0082039 C134.141748,69.3151163 134.514559,69.5235227 134.923759,69.6025685 C134.987738,69.6066922 135.048676,69.6313005 135.097518,69.6727366 L135.097518,69.7140119 L135.097518,69.7676698 L134.923759,69.7676698 C134.80792,69.7676698 134.631403,69.7594147 134.394208,69.7429046 L134.04669,69.7429046 C133.679866,69.7429046 133.266154,69.7580389 132.805556,69.7883075 C132.803061,69.7622257 132.803061,69.7359661 132.805556,69.7098844 L132.805556,69.6892467 C132.865157,69.6480363 132.932839,69.6199008 133.004137,69.6066961 C133.146158,69.5699093 133.29187,69.5491417 133.438534,69.5447831 L133.546099,69.5447831 C133.511142,69.4914928 133.469425,69.4429357 133.421986,69.4003195 L133.318558,69.3012587 L133.008274,69.0205865 L132.553191,68.6573637 L131.833333,68.038234 C131.601655,67.8456158 131.27896,67.5965881 130.865248,67.2911507 L130.865248,67.2952783 Z" id="Shape" fill="#1C1C1C"></path>
            </g>
        </g>
    </g>
</svg>