<?xml version="1.0" encoding="UTF-8"?>
<svg width="34px" height="34px" viewBox="0 0 34 34" version="1.1" xmlns="http://www.w3.org/2000/svg" xmlns:xlink="http://www.w3.org/1999/xlink">
    <!-- Generator: Sketch 58 (84663) - https://sketch.com -->
    <title>Twitter</title>
    <desc>Created with Sketch.</desc>
    <g id="Page-1" stroke="none" stroke-width="1" fill="none" fill-rule="evenodd">
        <g id="01.-TheComposerWorks_homepage" transform="translate(-1270.000000, -1620.000000)" fill="#1C1C1C">
            <g id="Group-8" transform="translate(13.000000, 1512.000000)">
                <g id="Group-5" transform="translate(1157.000000, 108.000000)">
                    <path d="M117.252206,-1.42108547e-14 C108.000329,-1.42108547e-14 100.5,7.61227446 100.5,17.0022389 C100.5,26.3877255 108.000329,34 117.252206,34 C126.499671,34 134,26.3877255 134,17.0022389 C134,7.61227446 126.499671,-1.42108547e-14 117.252206,-1.42108547e-14 L117.252206,-1.42108547e-14 Z M123.618662,13.3976031 C123.623074,13.5498485 123.627486,13.702094 123.627486,13.8543395 C123.627486,18.5157382 120.217042,23.8935862 113.982945,23.8935862 C112.068155,23.8935862 110.285724,23.3069933 108.785658,22.308442 C109.050375,22.3397866 109.319505,22.3576979 109.593046,22.3576979 C111.181351,22.3576979 112.646121,21.793494 113.806466,20.8486764 C112.319637,20.8173318 111.071052,19.8008692 110.63868,18.3993152 C110.846042,18.4396154 111.057816,18.4620045 111.274002,18.4620045 C111.587251,18.4620045 111.92256,18.4172264 112.204926,18.3366258 C110.651916,18.0142236 109.518043,16.5858027 109.518043,14.8752799 L109.518043,14.8349796 C109.959239,15.0946925 110.466614,15.2558936 111.022521,15.2738048 C110.109245,14.6424338 109.495983,13.5588042 109.495983,12.3363624 C109.495983,11.691558 109.654814,11.0825761 109.946003,10.5631503 C111.618135,12.6990649 114.110892,14.100619 116.930133,14.2483867 C116.868366,13.9886738 116.839688,13.7200053 116.839688,13.4468589 C116.839688,11.4990122 118.356078,9.91834584 120.22719,9.91834584 C121.202232,9.91834584 122.083742,10.3437377 122.701416,11.0288424 C123.473508,10.8721191 124.19707,10.5810615 124.854451,10.1735809 C124.60297,10.9974977 124.06427,11.691558 123.362768,12.1259054 C124.051034,12.0408271 124.704004,11.8527591 125.308442,11.5706572 C124.858422,12.2781509 124.280456,12.9005663 123.618662,13.3976031 L123.618662,13.3976031 Z" id="Twitter"></path>
                </g>
            </g>
        </g>
    </g>
</svg>